<svg width="366" height="324" viewBox="0 0 366 324" fill="none" xmlns="http://www.w3.org/2000/svg">
<g clip-path="url(#clip0_1701_4453)">
<path d="M183 324.075C284.068 324.075 366 274.704 366 213.803C366 152.901 284.068 103.53 183 103.53C81.9319 103.53 0 152.901 0 213.803C0 274.704 81.9319 324.075 183 324.075Z" fill="#F9FBFF"/>
<path d="M10.436 221.743L173.236 315.534C174.963 316.508 177.817 316.508 179.544 315.534L265.149 266.241C266.876 265.268 266.876 263.619 265.149 262.571L102.349 168.779C100.622 167.805 97.7683 167.805 96.0412 168.779L10.436 218.072C8.70884 219.121 8.70884 220.769 10.436 221.743Z" fill="#E0E0E0"/>
<path d="M181.121 124.132C187.654 127.953 187.654 134.096 181.121 137.916C174.588 141.737 163.925 141.737 157.392 137.916C150.859 134.096 150.859 127.953 157.392 124.132C164 120.311 174.588 120.311 181.121 124.132Z" fill="#E0E0E0"/>
<path d="M339.493 174.548L236.391 115.141C235.34 114.467 233.613 114.467 232.561 115.067L175.191 148.253C174.139 148.852 174.139 149.826 175.191 150.426L200.046 164.734L178.57 179.192C171.661 183.837 170.235 189.905 175.266 192.827C180.297 195.748 192.162 195.973 199.596 192.302L224.226 178.668L234.514 184.586L278.142 209.757C279.194 210.356 280.921 210.356 281.972 209.757L339.493 176.795C340.469 176.196 340.469 175.222 339.493 174.548Z" fill="#D4E2F5"/>
<path d="M256.292 264.519L180.598 308.118C178.12 309.542 175.267 309.542 172.714 308.268L20.3514 220.47C17.9485 219.121 15.9961 215.975 15.9961 213.578C15.9961 211.18 17.9485 208.034 20.3514 206.686L95.7441 163.236C98.1471 161.887 102.052 161.887 104.455 163.236L256.292 250.735C258.694 252.083 260.647 255.229 260.647 257.627C260.647 260.024 258.694 263.17 256.292 264.519Z" fill="#528BD6"/>
<path opacity="0.5" d="M95.7441 163.236L20.3514 206.686C17.9485 208.034 15.9961 211.18 15.9961 213.578C15.9961 215.975 17.9485 219.121 20.3514 220.47L172.714 308.268C173.915 308.867 175.192 309.167 176.468 309.167V204.738L104.38 163.236C102.052 161.887 98.1471 161.887 95.7441 163.236Z" fill="black"/>
<path opacity="0.4" d="M180.599 308.119L256.292 264.519C258.695 263.171 260.647 260.024 260.647 257.627C260.647 255.23 258.695 252.083 256.292 250.735L176.469 204.738V309.167C177.971 309.167 179.322 308.868 180.599 308.119Z" fill="black"/>
<path d="M178.793 300.328C176.691 301.527 173.236 301.527 171.134 300.328L20.2733 213.429C17.0443 211.556 17.0443 208.484 20.2733 206.611L95.666 163.162C98.0689 161.813 101.974 161.813 104.377 163.162L256.213 250.66C258.616 252.009 258.616 254.256 256.213 255.68L178.793 300.328Z" fill="#528BD6"/>
<path opacity="0.3" d="M178.793 300.328C176.691 301.527 173.236 301.527 171.134 300.328L20.2733 213.429C17.0443 211.556 17.0443 208.484 20.2733 206.611L95.666 163.162C98.0689 161.813 101.974 161.813 104.377 163.162L256.213 250.66C258.616 252.009 258.616 254.256 256.213 255.68L178.793 300.328Z" fill="black"/>
<path d="M171.514 291.563C169.261 292.911 165.507 292.911 163.254 291.563L33.4943 216.874C31.2415 215.526 31.2415 213.428 33.4943 212.08L104.457 171.252C106.709 169.978 110.464 169.978 112.717 171.252L242.476 246.015C244.729 247.289 244.729 249.461 242.476 250.81L171.514 291.563Z" fill="#37474F"/>
<path d="M108.287 170.279C106.86 170.279 105.509 170.654 104.382 171.253L33.42 212.081C31.1673 213.429 31.1673 215.527 33.42 216.875L47.4623 224.966L108.212 186.236V170.279H108.287Z" fill="#263238"/>
<path d="M112.719 174.324C110.466 173.051 106.712 173.051 104.459 174.324L33.4966 215.152C33.046 215.377 32.6706 215.676 32.4453 216.051C32.7457 216.351 33.046 216.575 33.4966 216.875L163.256 291.638C165.509 292.987 169.264 292.987 171.516 291.638L242.479 250.811C242.929 250.586 243.305 250.286 243.53 249.987C243.229 249.687 242.929 249.387 242.479 249.163L112.719 174.324Z" fill="#528BD6"/>
<path opacity="0.75" d="M112.719 174.324C110.466 173.051 106.712 173.051 104.459 174.324L33.4966 215.152C33.046 215.377 32.6706 215.676 32.4453 216.051C32.7457 216.351 33.046 216.575 33.4966 216.875L163.256 291.638C165.509 292.987 169.264 292.987 171.516 291.638L242.479 250.811C242.929 250.586 243.305 250.286 243.53 249.987C243.229 249.687 242.929 249.387 242.479 249.163L112.719 174.324Z" fill="white"/>
<path d="M59.3995 192.977L71.9399 185.711C72.6909 185.261 72.6909 184.587 72.015 184.213C71.3392 183.838 70.1377 183.838 69.3868 184.288L56.8464 191.554C56.0955 192.004 56.0955 192.678 56.7713 193.052C57.4471 193.427 58.6486 193.427 59.3995 192.977Z" fill="#37474F"/>
<path d="M80.9506 180.541C81.6265 180.166 81.6265 179.492 80.9506 179.043C80.2748 178.668 79.0733 178.668 78.3975 179.043C77.7217 179.417 77.7217 180.091 78.3975 180.541C79.1484 180.915 80.2748 180.915 80.9506 180.541Z" fill="#37474F"/>
<path d="M86.06 177.62C86.7358 177.245 86.7358 176.571 86.06 176.122C85.3842 175.747 84.1827 175.747 83.5069 176.122C82.831 176.496 82.831 177.171 83.5069 177.62C84.2578 177.995 85.3842 177.995 86.06 177.62Z" fill="#37474F"/>
<path d="M45.2827 201.068C45.9585 200.694 45.9585 200.019 45.2827 199.57C44.6068 199.195 43.4054 199.195 42.7295 199.57C42.0537 199.945 42.0537 200.619 42.7295 201.068C43.4805 201.518 44.6068 201.518 45.2827 201.068Z" fill="#37474F"/>
<path d="M50.3881 198.146C51.064 197.772 51.064 197.098 50.3881 196.648C49.7123 196.274 48.5108 196.274 47.835 196.648C47.1592 197.023 47.1592 197.697 47.835 198.146C48.5859 198.596 49.7123 198.596 50.3881 198.146Z" fill="#37474F"/>
<path d="M68.1855 243.019C68.9364 243.468 69.5372 244.442 69.5372 245.266C69.5372 245.641 69.387 245.94 69.1617 246.09C69.0115 246.165 68.4108 246.54 68.1855 246.614C67.9602 246.764 67.5848 246.689 67.2093 246.54L49.5626 236.351C48.8117 235.902 48.2109 234.928 48.2109 234.104C48.2109 233.729 48.3611 233.43 48.5864 233.355C48.7366 233.28 49.4124 232.905 49.5626 232.756C49.7879 232.606 50.1633 232.681 50.5388 232.83L68.1855 243.019Z" fill="#528BD6"/>
<path opacity="0.4" d="M68.1855 243.019C68.9364 243.468 69.5372 244.442 69.5372 245.266C69.5372 245.641 69.387 245.94 69.1617 246.09C69.0115 246.165 68.4108 246.54 68.1855 246.614C67.9602 246.764 67.5848 246.689 67.2093 246.54L49.5626 236.351C48.8117 235.902 48.2109 234.928 48.2109 234.104C48.2109 233.729 48.3611 233.43 48.5864 233.355C48.7366 233.28 49.4124 232.905 49.5626 232.756C49.7879 232.606 50.1633 232.681 50.5388 232.83L68.1855 243.019Z" fill="black"/>
<path d="M67.2093 243.618L49.5626 233.429C48.8117 232.98 48.2109 233.28 48.2109 234.104C48.2109 234.928 48.8117 235.902 49.5626 236.351L67.2093 246.539C67.9602 246.989 68.561 246.689 68.561 245.865C68.561 245.041 67.9602 243.992 67.2093 243.618Z" fill="#528BD6"/>
<path opacity="0.3" d="M67.2093 243.618L49.5626 233.429C48.8117 232.98 48.2109 233.28 48.2109 234.104C48.2109 234.928 48.8117 235.902 49.5626 236.351L67.2093 246.539C67.9602 246.989 68.561 246.689 68.561 245.865C68.561 245.041 67.9602 243.992 67.2093 243.618Z" fill="black"/>
<path d="M44.5342 229.385C45.2851 229.834 45.8859 230.808 45.8859 231.632C45.8859 232.007 45.7357 232.306 45.5104 232.456C45.3602 232.531 44.7595 232.906 44.5342 232.98C44.3089 233.13 43.9335 233.055 43.558 232.906L35.2228 228.111C34.4718 227.662 33.8711 226.688 33.8711 225.864C33.8711 225.489 34.0213 225.189 34.2466 225.115C34.3967 225.04 35.0726 224.665 35.2228 224.515C35.448 224.365 35.8235 224.44 36.199 224.59L44.5342 229.385Z" fill="#528BD6"/>
<path opacity="0.4" d="M44.5342 229.385C45.2851 229.834 45.8859 230.808 45.8859 231.632C45.8859 232.007 45.7357 232.306 45.5104 232.456C45.3602 232.531 44.7595 232.906 44.5342 232.98C44.3089 233.13 43.9335 233.055 43.558 232.906L35.2228 228.111C34.4718 227.662 33.8711 226.688 33.8711 225.864C33.8711 225.489 34.0213 225.189 34.2466 225.115C34.3967 225.04 35.0726 224.665 35.2228 224.515C35.448 224.365 35.8235 224.44 36.199 224.59L44.5342 229.385Z" fill="black"/>
<path d="M43.558 229.984L35.2228 225.189C34.4718 224.74 33.8711 225.039 33.8711 225.863C33.8711 226.688 34.4718 227.661 35.2228 228.111L43.558 232.905C44.3089 233.355 44.9097 233.055 44.9097 232.231C44.9097 231.407 44.3089 230.358 43.558 229.984Z" fill="#528BD6"/>
<path opacity="0.3" d="M43.558 229.984L35.2228 225.189C34.4718 224.74 33.8711 225.039 33.8711 225.863C33.8711 226.688 34.4718 227.661 35.2228 228.111L43.558 232.905C44.3089 233.355 44.9097 233.055 44.9097 232.231C44.9097 231.407 44.3089 230.358 43.558 229.984Z" fill="black"/>
<path opacity="0.15" d="M111.212 250.584L130.886 261.971C131.487 262.345 132.463 262.345 132.989 261.971L189.383 229.533C189.984 229.159 189.984 228.634 189.383 228.335L169.709 216.948C169.108 216.573 168.132 216.573 167.607 216.948L111.212 249.385C110.612 249.685 110.612 250.284 111.212 250.584Z" fill="black"/>
<path d="M187.061 226.612C187.061 226.387 186.911 226.163 186.611 226.013L169.039 215.9C168.439 215.6 167.537 215.6 166.937 215.9L113.396 246.839C113.096 246.989 112.945 247.213 112.945 247.438C112.945 247.663 112.945 249.086 112.945 249.311C112.945 249.536 113.096 249.76 113.396 249.91L130.967 260.023C131.568 260.323 132.469 260.323 133.07 260.023L186.686 229.159C186.986 229.009 187.137 228.785 187.137 228.56C187.061 228.26 187.061 226.837 187.061 226.612Z" fill="#263238"/>
<path d="M130.892 258.076L113.396 248.037C112.795 247.738 112.795 247.138 113.396 246.839L167.012 215.9C167.613 215.6 168.514 215.6 169.114 215.9L186.686 226.013C187.287 226.312 187.287 226.912 186.686 227.211L133.07 258.076C132.469 258.45 131.493 258.45 130.892 258.076Z" fill="#37474F"/>
<path d="M131.944 258.376V260.249C131.568 260.249 131.268 260.174 130.967 260.024L113.396 249.911C113.096 249.761 112.945 249.536 112.945 249.311V247.438C112.945 247.663 113.096 247.888 113.396 248.038L130.967 258.076C131.193 258.301 131.568 258.376 131.944 258.376Z" fill="#263238"/>
<path d="M167.911 217.473L169.714 218.447L167.386 219.795L165.583 218.821L167.911 217.473ZM170.615 219.046L172.417 220.02L170.54 221.069L168.737 220.095L170.615 219.046ZM164.607 219.42L166.41 220.394L164.532 221.443L162.73 220.469L164.607 219.42ZM173.318 220.619C173.393 220.619 173.393 220.619 173.318 220.619L175.12 221.593L172.117 223.316L170.314 222.342L173.318 220.619ZM167.836 220.694L169.638 221.668L168.137 222.492L166.334 221.518L167.836 220.694ZM161.829 220.994L163.631 221.967L161.754 223.016L159.952 222.042L161.829 220.994ZM165.433 222.042L167.236 223.016L165.734 223.84L163.931 222.866L165.433 222.042ZM176.021 222.192C176.096 222.192 176.096 222.192 176.021 222.192L177.824 223.166L175.496 224.515L173.693 223.541L176.021 222.192ZM159.05 222.642L160.853 223.616L147.486 231.332L145.684 230.358L159.05 222.642ZM169.413 222.866L171.215 223.84L169.714 224.664L167.911 223.69L169.413 222.866ZM163.03 223.466L164.833 224.44L163.331 225.264L161.529 224.29L163.03 223.466ZM178.8 223.765L180.602 224.739L179.1 225.563L177.298 224.589L178.8 223.765ZM172.792 224.065L174.595 225.039L173.093 225.863L171.291 224.889L172.792 224.065ZM167.01 224.29L168.812 225.264L167.311 226.088L165.508 225.114L167.01 224.29ZM160.627 224.814L162.43 225.788L160.928 226.612L159.126 225.638L160.627 224.814ZM176.397 225.189L178.199 226.163L176.697 226.987L174.895 226.013L176.397 225.189ZM170.389 225.488L172.192 226.462L170.69 227.286L168.888 226.312L170.389 225.488ZM164.607 225.638L166.41 226.612L164.908 227.436L163.105 226.462L164.607 225.638ZM182.104 225.638L183.906 226.612L182.029 227.661L180.227 226.687L182.104 225.638ZM158.224 226.238L160.027 227.211L158.525 228.035L156.723 227.062L158.224 226.238ZM173.994 226.537L175.796 227.511L174.294 228.335L172.492 227.361L173.994 226.537ZM167.911 226.912C167.986 226.912 167.986 226.912 167.911 226.912L169.714 227.886L168.212 228.71L166.41 227.736L167.911 226.912ZM162.204 227.062L164.007 228.035L162.505 228.859L160.702 227.886L162.204 227.062ZM155.821 227.586L157.624 228.56L156.122 229.384L154.32 228.41L155.821 227.586ZM178.274 227.886L180.076 228.859L178.574 229.684L176.772 228.71L178.274 227.886ZM171.591 227.961L173.393 228.934L171.891 229.758L170.089 228.785L171.591 227.961ZM165.508 228.26C165.583 228.26 165.583 228.26 165.508 228.26L167.311 229.234L165.809 230.058L164.007 229.084L165.508 228.26ZM159.801 228.41L161.604 229.384L160.102 230.208L158.3 229.234L159.801 228.41ZM153.343 229.009C153.419 229.009 153.419 229.009 153.343 229.009L155.146 229.983L153.644 230.807L151.842 229.833L153.343 229.009ZM175.871 229.234L177.673 230.208L176.172 231.032L174.369 230.058L175.871 229.234ZM169.113 229.309C169.188 229.309 169.188 229.309 169.113 229.309L170.915 230.283L169.413 231.107L167.611 230.133L169.113 229.309ZM163.105 229.684C163.181 229.684 163.181 229.684 163.105 229.684L164.908 230.657L163.406 231.481L161.604 230.508L163.105 229.684ZM157.398 229.833L159.201 230.807L157.699 231.631L155.897 230.657L157.398 229.833ZM150.94 230.358C151.016 230.358 151.016 230.358 150.94 230.358L152.743 231.332L151.241 232.156L149.439 231.182L150.94 230.358ZM173.468 230.657L175.27 231.631L173.769 232.455L171.966 231.481L173.468 230.657ZM166.71 230.732C166.785 230.732 166.785 230.732 166.71 230.732L168.512 231.706L167.01 232.53L165.208 231.556L166.71 230.732ZM144.708 230.882L146.51 231.856L144.633 232.905L142.831 231.931L144.708 230.882ZM160.702 231.032C160.778 231.032 160.778 231.032 160.702 231.032L162.505 232.006L161.003 232.83L159.201 231.856L160.702 231.032ZM154.995 231.257L156.798 232.231L155.296 233.055L153.494 232.081L154.995 231.257ZM148.538 231.781C148.613 231.781 148.613 231.781 148.538 231.781L150.34 232.755L148.838 233.579L147.036 232.605L148.538 231.781ZM170.99 232.081C171.065 232.081 171.065 232.081 170.99 232.081L172.792 233.055L171.291 233.879L169.488 232.905L170.99 232.081ZM164.307 232.081C164.382 232.081 164.382 232.081 164.307 232.081L166.109 233.055L164.607 233.879L162.805 232.905L164.307 232.081ZM158.3 232.455L160.102 233.429L158.6 234.253L156.798 233.279L158.3 232.455ZM141.929 232.455L143.732 233.429L141.854 234.478L140.052 233.504L141.929 232.455ZM152.517 232.605C152.593 232.605 152.593 232.605 152.517 232.605L154.32 233.579L152.818 234.403L151.016 233.429L152.517 232.605ZM146.135 233.13L147.937 234.103L146.435 234.927L144.633 233.954L146.135 233.13ZM161.904 233.504C161.979 233.504 161.979 233.504 161.904 233.504L163.706 234.478L162.204 235.302L160.402 234.328L161.904 233.504ZM155.897 233.804L157.699 234.778L156.197 235.602L154.395 234.628L155.897 233.804ZM150.114 234.029C150.19 234.029 150.19 234.029 150.114 234.029L151.917 235.002L150.415 235.826L148.613 234.853L150.114 234.029ZM167.536 234.029C167.611 234.029 167.611 234.029 167.536 234.029L169.338 235.002L167.836 235.826L166.034 234.853L167.536 234.029ZM139.151 234.103L140.953 235.077L139.076 236.126L137.274 235.152L139.151 234.103ZM143.732 234.553L145.534 235.527L144.032 236.351L142.23 235.377L143.732 234.553ZM159.501 234.853L161.303 235.826L159.801 236.65L157.999 235.677L159.501 234.853ZM153.494 235.227L155.296 236.201L153.794 237.025L151.992 236.051L153.494 235.227ZM147.712 235.377C147.787 235.377 147.787 235.377 147.712 235.377L149.514 236.351L148.012 237.175L146.21 236.201L147.712 235.377ZM165.133 235.452C165.208 235.452 165.208 235.452 165.133 235.452L166.935 236.426L165.433 237.25L163.631 236.276L165.133 235.452ZM136.297 235.677C136.373 235.677 136.373 235.677 136.297 235.677L138.1 236.65L135.772 237.999L133.97 237.025L136.297 235.677ZM141.329 235.901L143.131 236.875L138.475 239.572L136.673 238.598L141.329 235.901ZM157.098 236.276L158.9 237.25L157.398 238.074L155.596 237.1L157.098 236.276ZM151.091 236.576L152.893 237.549L151.391 238.373L149.589 237.4L151.091 236.576ZM145.309 236.8L147.111 237.774L145.609 238.598L143.807 237.624L145.309 236.8ZM162.73 236.8C162.805 236.8 162.805 236.8 162.73 236.8L164.532 237.774L163.03 238.598L161.228 237.624L162.73 236.8ZM154.695 237.624L156.497 238.598L154.995 239.422L153.193 238.448L154.695 237.624ZM132.543 237.849L134.345 238.823L132.843 239.647L131.041 238.673L132.543 237.849ZM148.688 237.999L150.49 238.973L148.988 239.797L147.186 238.823L148.688 237.999ZM142.906 238.149L144.708 239.123L143.356 239.872C143.281 239.947 143.206 240.022 143.206 240.096C143.206 240.171 143.281 240.321 143.356 240.321L145.609 241.67L143.882 242.644L139.376 240.096L142.906 238.149ZM160.327 238.224L162.129 239.198L160.627 240.022L158.825 239.048L160.327 238.224ZM152.292 239.048L154.094 240.022L152.593 240.846L150.79 239.872L152.292 239.048ZM130.14 239.272L131.942 240.246L130.44 241.07L128.638 240.096L130.14 239.272ZM146.285 239.347L148.087 240.321L146.585 241.145L144.783 240.171L146.285 239.347ZM156.873 240.171L158.675 241.145L157.173 241.969L155.371 240.995L156.873 240.171ZM149.889 240.396L151.691 241.37L150.19 242.194L148.387 241.22L149.889 240.396ZM127.737 240.621L129.539 241.595L128.037 242.419L126.235 241.445L127.737 240.621ZM132.843 240.846L134.645 241.819L133.144 242.644L131.341 241.67L132.843 240.846ZM154.47 241.595L156.272 242.569L154.77 243.393L152.968 242.419L154.47 241.595ZM147.486 241.819L149.288 242.793L146.66 244.292L144.858 243.318L147.486 241.819ZM124.808 242.344L126.611 243.318L122.706 245.565L120.904 244.591L124.808 242.344ZM140.728 242.569L142.53 243.542L141.028 244.367L139.226 243.393L140.728 242.569ZM152.067 242.943L153.869 243.917L152.367 244.741L150.565 243.767L152.067 242.943ZM127.512 243.917L129.314 244.891L127.812 245.715L126.01 244.741L127.512 243.917ZM138.25 243.992C138.325 243.992 138.325 243.992 138.25 243.992L140.052 244.966L138.55 245.79L136.748 244.816L138.25 243.992ZM143.431 244.142L145.233 245.116L143.732 245.94L141.929 244.966L143.431 244.142ZM149.664 244.367L151.466 245.34L149.964 246.164L148.162 245.191L149.664 244.367ZM120.002 245.116L121.805 246.09L120.303 246.914L118.501 245.94L120.002 245.116ZM125.109 245.265L126.911 246.239L125.409 247.063L123.607 246.09L125.109 245.265ZM135.847 245.34C135.922 245.34 135.922 245.34 135.847 245.34L137.649 246.314L136.147 247.138L134.345 246.164L135.847 245.34ZM130.215 245.49C130.29 245.49 130.29 245.49 130.215 245.49L132.017 246.464L130.515 247.288L128.713 246.314L130.215 245.49ZM141.028 245.49L142.831 246.464L141.329 247.288L139.526 246.314L141.028 245.49ZM146.735 246.015L148.538 246.989L147.036 247.813L145.233 246.839L146.735 246.015ZM117.6 246.464L122.105 249.011L120.603 249.835L116.098 247.288L117.6 246.464ZM122.706 246.689L124.508 247.663L123.006 248.487L121.204 247.513L122.706 246.689ZM127.812 246.839C127.887 246.839 127.887 246.839 127.812 246.839L129.614 247.813L128.112 248.637L126.31 247.663L127.812 246.839ZM138.625 246.914L140.428 247.887L138.926 248.712L137.124 247.738L138.625 246.914ZM132.993 246.989L134.796 247.962L133.294 248.786L131.492 247.813L132.993 246.989ZM144.332 247.438L146.135 248.412L144.633 249.236L142.831 248.262L144.332 247.438ZM125.409 248.262L127.211 249.236L125.709 250.06L123.907 249.086L125.409 248.262ZM130.59 248.412L132.393 249.386L130.891 250.21L129.089 249.236L130.59 248.412ZM135.697 248.562L137.499 249.536L135.997 250.36L134.195 249.386L135.697 248.562ZM141.929 248.786L143.732 249.76L142.23 250.584L140.428 249.61L141.929 248.786ZM123.006 249.61L127.512 252.158L126.01 252.982L121.504 250.435L123.006 249.61ZM128.112 249.835C128.188 249.835 128.188 249.835 128.112 249.835L129.915 250.809L128.413 251.633L126.611 250.659L128.112 249.835ZM133.294 249.985L135.096 250.959L133.594 251.783L131.792 250.809L133.294 249.985ZM139.677 250.884L140.503 251.333L139.001 252.158L138.175 251.708L139.677 250.884ZM130.891 251.333L132.693 252.307L131.191 253.131L129.389 252.158L130.891 251.333ZM137.274 252.307L138.1 252.757L136.598 253.581L135.772 253.131L137.274 252.307ZM128.488 252.757L130.29 253.731L128.788 254.555L126.986 253.581L128.488 252.757ZM134.871 253.656L135.697 254.105L134.195 254.929L133.369 254.48L134.871 253.656ZM132.468 255.079L133.294 255.529L131.792 256.353L130.966 255.903L132.468 255.079Z" fill="#1F78E3"/>
<path opacity="0.1" d="M67.3603 229.384C68.1863 231.407 69.9134 232.456 72.5417 233.654C80.126 237.025 98.2983 241.146 108.511 242.944C114.443 243.992 120.526 245.94 126.608 246.165C132.015 246.39 137.647 245.416 142.152 242.344C142.753 241.97 143.354 241.445 143.579 240.771C143.954 239.722 143.279 238.524 142.302 237.924C141.326 237.325 140.2 237.175 139.073 237.1C126.984 235.677 115.119 232.531 103.93 227.811C108.961 227.287 114.068 226.762 118.799 224.815C123.454 222.867 127.81 219.421 129.462 214.626C129.762 213.653 130.062 212.604 130.888 211.93C131.714 211.255 132.916 211.255 133.967 211.63C137.271 212.829 138.548 216.649 139.524 220.02C140.5 223.391 142.152 227.212 145.531 227.961C144.255 227.212 144.78 225.039 146.057 224.515C147.409 223.991 148.986 224.815 149.737 226.013C150.487 227.137 150.713 228.56 151.389 229.834C152.064 231.032 153.491 232.081 154.768 231.557C155.444 231.257 155.894 230.583 156.27 229.984C158.072 226.463 157.771 222.043 156.195 218.447C154.618 214.776 151.914 211.78 148.986 209.008C145.006 205.187 140.425 201.741 135.244 199.794C124.355 195.748 112.115 198.67 101.302 203.015C93.192 206.311 85.3074 210.281 77.9483 215.001C75.245 216.724 72.4666 218.597 70.2889 220.994C68.6369 222.717 66.9097 225.264 67.0599 227.736C67.0599 228.41 67.2101 228.935 67.3603 229.384Z" fill="black"/>
<path d="M159.651 217.698C158.074 215.225 155.22 210.206 154.319 209.158C151.916 206.386 146.81 202.041 146.81 202.041C142.079 198.145 127.511 185.335 127.511 185.335C127.511 185.335 125.258 156.868 122.705 152.298C119.777 146.979 114.22 146.755 108.513 146.455C108.513 146.455 107.011 152.673 106.41 157.692C106.41 157.692 111.592 189.605 112.192 192.602C112.793 195.598 114.295 196.872 117.374 198.819C122.029 201.816 139.075 210.955 139.075 210.955L139.901 211.555C140.502 211.929 140.878 212.529 141.103 213.203C141.253 213.727 141.478 214.401 141.553 215.225C141.854 217.623 141.553 218.222 141.779 220.769C142.004 223.316 142.53 223.241 143.581 225.489C144.482 227.511 144.782 228.785 145.533 228.86C146.284 228.935 147.26 227.287 147.26 225.564C147.26 223.841 146.209 222.043 146.209 221.293C146.209 220.694 146.585 219.72 148.161 220.619C149.814 221.593 151.24 224.44 152.442 226.388C153.643 228.41 154.244 231.032 155.521 232.456C156.722 233.879 157.173 232.306 157.698 230.957C158.224 229.609 160.927 227.436 161.678 225.264C162.354 223.166 161.228 220.17 159.651 217.698Z" fill="#FFA8A7"/>
<path d="M108.587 146.231C112.567 146.231 115.721 145.781 119.25 147.879C122.704 149.977 123.68 152.898 124.431 157.393C125.182 161.513 126.609 175.597 126.609 175.597C126.609 175.597 116.547 181.14 107.836 177.62L108.587 146.231Z" fill="#37474F"/>
<path d="M116.849 126.901C116.849 126.901 119.327 127.651 121.579 129.074C123.907 130.497 123.982 133.119 123.006 134.767L121.204 134.393C121.204 134.393 122.105 132.295 121.054 131.171C119.927 130.048 116.773 129.074 116.773 129.074L116.849 126.901Z" fill="#263238"/>
<path d="M122.327 133.644C120.825 132.895 120.15 133.869 119.098 136.341C118.047 138.813 118.798 139.487 119.999 140.012C121.276 140.536 122.252 139.712 123.003 137.615C123.904 135.292 123.904 134.393 122.327 133.644Z" fill="#1F78E3"/>
<path opacity="0.1" d="M122.48 133.644C120.978 132.895 120.302 133.869 119.251 136.341C118.199 138.813 118.95 139.487 120.152 140.012C121.428 140.536 122.404 139.712 123.155 137.615C124.057 135.292 124.057 134.468 122.48 133.644Z" fill="black"/>
<path d="M92.2913 148.103C84.0312 149.976 75.1703 152.598 68.4871 155.445C68.4871 155.445 67.9614 183.837 72.5421 197.396C77.1227 210.955 75.8461 226.387 75.8461 226.387C98.3738 229.983 125.707 219.57 125.032 208.258C125.032 208.258 123.605 204.962 121.202 201.366C121.202 201.366 120.676 192.227 120.902 188.182C137.422 172.749 114.444 152.972 108.586 146.155C104.982 146.755 99.6504 146.38 92.2913 148.103Z" fill="#455A64"/>
<path d="M90.9425 106.302C89.8912 108.249 90.3417 110.497 90.7923 112.519C91.0927 114.093 92.0689 115.965 91.6934 117.539C91.1678 119.711 89.6659 121.509 87.9388 122.932C87.4882 123.307 87.0377 123.681 86.512 123.906C86.0615 124.131 85.6109 124.281 85.1604 124.506C84.2593 125.03 83.5083 125.854 82.9076 126.753C82.1567 128.026 81.7061 129.525 81.3307 131.023C80.9552 132.521 80.5046 133.945 79.6035 135.218C77.9515 137.69 74.7976 139.039 71.869 138.889C70.217 138.814 68.6401 138.215 67.2133 137.391C66.4624 136.941 65.8616 136.492 65.1858 135.892C64.8104 135.518 64.2096 134.918 63.8341 134.169C63.6089 136.117 64.1345 138.215 65.2609 139.863C62.1821 140.387 58.8781 139.413 56.6253 137.241C54.3725 135.068 53.2461 131.847 53.6967 128.701C53.9971 126.753 54.8231 124.955 55.1985 123.082C56.3249 117.988 51.7443 115.216 50.9934 110.572C50.5428 107.65 52.0447 104.579 54.6729 103.23C56.2498 102.406 58.2773 102.032 58.9531 100.383C59.4788 99.1099 58.8781 97.6866 58.8781 96.3381C58.8781 93.6413 61.4312 91.6186 63.9843 90.7946C66.5375 89.9705 69.3159 89.9705 71.869 89.2214C74.6474 88.3973 77.1255 86.7492 79.9039 86.2248C83.208 85.6255 86.7373 86.8991 89.0652 89.3712C90.1165 90.4949 90.7172 91.7684 91.6183 92.967C92.5194 94.0907 94.0213 94.6901 94.6971 96.1134C95.5982 97.9113 95.8986 100.159 94.9224 101.882C93.8711 103.605 91.8436 104.579 90.9425 106.302Z" fill="#37474F"/>
<path d="M116.328 112.37C116.028 103.455 110.846 90.7198 91.6226 92.3679C72.9246 93.9411 67.3678 110.572 69.0949 119.636C71.4979 132.147 80.584 132.896 82.9119 141.062L116.328 112.37Z" fill="#455A64"/>
<path d="M74.4982 119.187C75.7747 117.764 77.4268 117.164 79.229 117.614C80.2052 117.839 80.881 118.363 81.5569 119.112C82.458 120.086 82.3829 121.36 82.9836 122.483C83.3591 123.157 84.0349 123.757 84.7858 123.832C87.339 124.056 86.3628 119.861 86.5129 118.438C91.3939 116.715 91.2438 114.917 91.9196 110.647C95.2988 106.976 101.231 106.452 106.337 109.973C109.491 103.98 112.87 104.729 114.297 106.602C115.123 107.95 115.949 110.647 116.475 113.569C117.151 117.464 117.451 120.685 117.301 124.581C116.7 138.889 111.969 142.335 109.566 143.309C107.238 144.283 104.31 143.609 99.9545 142.785V151.4C104.46 160.015 108.064 172.975 107.914 181.44C101.006 168.33 90.1174 161.363 85.0111 156.569C82.9085 154.621 81.9323 152.973 81.9323 152.973V130.349C81.9323 130.349 80.055 132.372 77.0513 129.975C73.0714 126.678 71.7949 122.184 74.4982 119.187Z" fill="#FFA8A7"/>
<path d="M100.025 142.634C96.2703 141.66 92.2904 140.236 89.512 138.139C87.3343 136.416 86.0578 134.093 85.457 132.445C85.457 132.445 85.7574 137.989 88.5358 140.461C91.3142 142.933 100.025 145.855 100.025 145.855V142.634Z" fill="#F28F8F"/>
<path d="M100.631 122.707C100.781 123.831 100.03 124.88 98.9789 125.029C97.9276 125.179 96.8764 124.355 96.7262 123.232C96.576 122.108 97.3269 121.059 98.3782 120.909C99.4295 120.759 100.481 121.583 100.631 122.707Z" fill="#263238"/>
<path d="M114.749 120.985C114.9 122.033 114.224 122.932 113.248 123.082C112.196 123.232 111.37 122.633 111.22 121.434C111.07 120.385 111.746 119.486 112.722 119.336C113.698 119.187 114.599 119.936 114.749 120.985Z" fill="#263238"/>
<path d="M104.762 118.437L106.188 130.423L112.346 128.025L104.762 118.437Z" fill="#F28F8F"/>
<path d="M99.5787 116.714L95.0732 118.736C94.5475 117.463 95.0732 115.965 96.3497 115.365C97.5512 114.841 98.978 115.365 99.5787 116.714Z" fill="#263238"/>
<path d="M98.0759 131.922L104.534 134.094C103.858 135.892 101.831 136.866 100.103 136.267C98.3012 135.668 97.4001 133.72 98.0759 131.922Z" fill="#B16668"/>
<path d="M98.227 133.42C99.9541 133.495 101.231 134.843 101.381 136.416C100.93 136.416 100.48 136.416 100.029 136.267C98.7527 135.817 98.0017 134.693 97.8516 133.495C98.0768 133.42 98.1519 133.42 98.227 133.42Z" fill="#F28F8F"/>
<path d="M115.272 117.239L110.691 115.216C111.217 113.942 112.644 113.343 113.92 113.867C115.197 114.467 115.798 115.89 115.272 117.239Z" fill="#263238"/>
<path d="M100.031 145.406C102.96 146.23 111.37 157.692 114.149 161.812L111.07 169.753C111.07 169.753 114.374 173.124 115.951 176.046L109.643 194.4C109.643 194.4 110.244 169.903 100.031 151.249V145.406Z" fill="#263238"/>
<path d="M108.742 180.39C110.995 186.233 111.295 199.793 111.295 199.793C111.295 199.793 109.043 187.207 98.3795 182.713C98.3795 182.113 98.5297 173.498 98.5297 173.498C98.5297 173.498 84.2622 169.902 81.2585 168.554L78.1797 152.073C78.1797 152.073 80.2072 146.979 81.9343 146.829V150.35C81.9343 150.35 87.6413 154.695 95.3758 162.186C103.185 169.603 106.565 174.547 108.742 180.39Z" fill="#37474F"/>
<path d="M145.684 238.598C143.356 236.651 140.052 234.029 137.424 233.354C137.049 233.279 136.523 233.055 135.547 232.905C136.448 232.68 137.349 232.53 138.175 232.156C139.001 231.781 139.827 231.257 140.278 230.508C140.503 230.208 140.578 229.758 140.278 229.534C140.202 229.459 140.052 229.459 139.902 229.459C137.95 229.534 136.373 229.384 134.646 229.384C133.895 229.384 132.994 229.384 132.243 229.609C131.567 229.833 130.816 230.133 130.14 230.433C126.986 231.781 124.133 233.055 119.477 232.38L117.525 231.856L84.9345 215.15L78.7769 181.589C78.7769 181.589 77.2751 160.763 68.7896 155.744C64.2841 157.467 59.328 161.662 58.0514 166.232C56.4745 171.626 57.0752 179.342 59.7786 191.253C62.0313 201.217 64.3592 211.48 66.9123 219.121C69.4655 226.687 70.4417 229.384 75.3978 230.882C83.8081 233.354 114.07 241.67 114.07 241.67C114.07 241.67 114.821 241.969 115.948 242.269C116.999 242.569 117.975 243.243 120.453 243.842C123.382 244.516 126.986 243.168 129.464 242.793C131.942 242.419 136.298 243.243 138.701 243.992C141.104 244.741 143.582 240.921 144.783 241.295C146.06 241.595 147.937 240.471 145.684 238.598Z" fill="#FFA8A7"/>
<path d="M134.345 231.632C132.618 231.632 130.891 232.531 130.891 232.531C130.891 232.531 132.993 232.381 135.546 232.98C136.447 232.755 137.349 232.606 138.175 232.231C138.926 231.931 139.601 231.482 140.127 230.808C138.775 231.781 135.997 231.707 134.345 231.632Z" fill="#F28F8F"/>
<path d="M68.4888 155.444C62.6316 157.916 58.8018 160.988 57.2249 167.356C55.648 173.723 56.7744 179.417 58.0509 186.159C59.3275 192.901 62.4814 203.988 62.4814 203.988C62.4814 203.988 74.9467 204.737 82.1556 199.718L78.2508 174.173C78.2508 174.173 76.1482 158.965 68.8642 155.669" fill="#37474F"/>
<path d="M78.5519 95.3641C74.1966 99.4094 69.9914 105.178 73.0702 118.437C71.1929 120.086 70.3669 123.007 71.268 125.929C72.4695 130.049 76.4493 132.746 80.1289 131.997C83.8084 131.248 85.7608 127.277 84.5593 123.157C83.6582 120.085 80.3541 117.089 77.6508 117.314C77.6508 117.314 75.0226 111.62 77.5006 103.605C80.8047 92.5923 93.6455 91.6934 99.3525 92.5923C97.325 89.8205 84.334 89.9704 78.5519 95.3641Z" fill="#1F78E3"/>
<path opacity="0.4" d="M78.5519 95.3641C74.1966 99.4094 69.9914 105.178 73.0702 118.437C71.1929 120.086 70.3669 123.007 71.268 125.929C72.4695 130.049 76.4493 132.746 80.1289 131.997C83.8084 131.248 85.7608 127.277 84.5593 123.157C83.6582 120.085 80.3541 117.089 77.6508 117.314C77.6508 117.314 75.0226 111.62 77.5006 103.605C80.8047 92.5923 93.6455 91.6934 99.3525 92.5923C97.325 89.8205 84.334 89.9704 78.5519 95.3641Z" fill="black"/>
<path d="M85.3116 122.932C83.96 118.362 79.6046 115.366 75.5496 116.265C74.9489 116.415 74.3481 116.639 73.7474 116.939C73.2969 117.164 71.8701 118.138 71.6448 118.287C69.0166 120.01 67.8902 123.531 68.9415 127.127C70.2932 131.697 74.6485 134.694 78.7035 133.795C79.4544 133.645 80.2053 133.345 80.8061 132.97C81.1065 132.746 82.4581 131.922 82.7585 131.697C85.2365 129.974 86.3629 126.528 85.3116 122.932Z" fill="#1F78E3"/>
<path opacity="0.3" d="M85.3116 122.932C83.96 118.362 79.6046 115.366 75.5496 116.265C74.9489 116.415 74.3481 116.639 73.7474 116.939C73.2969 117.164 71.8701 118.138 71.6448 118.287C69.0166 120.01 67.8902 123.531 68.9415 127.127C70.2932 131.697 74.6485 134.694 78.7035 133.795C79.4544 133.645 80.2053 133.345 80.8061 132.97C81.1065 132.746 82.4581 131.922 82.7585 131.697C85.2365 129.974 86.3629 126.528 85.3116 122.932Z" fill="black"/>
<path d="M83.6579 124.056C82.3063 119.486 77.9509 116.49 73.8959 117.389C69.8409 118.213 67.5882 122.633 68.9398 127.202C70.2915 131.772 74.6469 134.769 78.7018 133.87C82.7568 132.971 85.0096 128.626 83.6579 124.056Z" fill="#1F78E3"/>
<path opacity="0.1" d="M83.6579 124.056C82.3063 119.486 77.9509 116.49 73.8959 117.389C69.8409 118.213 67.5882 122.633 68.9398 127.202C70.2915 131.772 74.6469 134.769 78.7018 133.87C82.7568 132.971 85.0096 128.626 83.6579 124.056Z" fill="black"/>
<path d="M79.7564 124.88C79.1557 122.707 77.0531 121.284 75.1758 121.733C73.2234 122.108 72.2472 124.205 72.8479 126.378C73.4486 128.55 75.5512 129.974 77.4285 129.524C79.3058 129.075 80.3571 127.052 79.7564 124.88Z" fill="#37474F"/>
<path opacity="0.1" d="M169.332 285.943L154.163 277.103C153.487 276.729 153.487 276.055 154.163 275.68L213.711 241.37C214.387 240.995 215.514 240.995 216.264 241.37L231.433 250.21C232.109 250.584 232.109 251.258 231.433 251.633L171.885 285.943C171.134 286.393 170.008 286.393 169.332 285.943Z" fill="black"/>
<path d="M224.745 235.976L228.725 188.781C228.8 187.432 228.049 185.859 226.923 185.26C225.872 184.661 223.994 184.661 222.868 185.335L163.395 219.57C162.269 220.244 161.217 221.818 161.067 223.166L157.087 270.361C157.012 271.71 157.763 273.283 158.889 273.882C159.941 274.482 161.818 274.482 162.944 273.807L222.418 239.572C223.544 238.973 224.595 237.325 224.745 235.976Z" fill="#263238"/>
<path d="M228.725 188.781L224.745 235.976L227.674 189.155C227.749 187.807 227.298 187.357 226.172 187.956L167.45 221.817C166.849 222.117 166.323 222.716 165.948 223.316L162.043 221.068C162.418 220.394 163.019 219.87 163.545 219.495L223.018 185.26C224.144 184.585 226.022 184.585 227.073 185.185C228.049 185.859 228.8 187.432 228.725 188.781Z" fill="#37474F"/>
<path d="M161.067 272.684L165.047 225.488C165.122 224.14 166.173 222.567 167.375 221.892L226.097 188.032C227.224 187.357 227.749 187.882 227.599 189.23L224.745 236.051C224.67 237.4 223.619 238.973 222.418 239.647L162.944 273.882C161.818 274.557 160.917 274.032 161.067 272.684Z" fill="#455A64"/>
<path d="M190.283 244.141L189.832 258.375L206.352 248.861L202.297 237.249L190.283 244.141Z" fill="#263238"/>
<path d="M192.683 245.714L204.247 239.047L202.22 237.923L190.73 244.59L192.683 245.714Z" fill="#455A64"/>
<path d="M210.553 258.975L204.245 239.048L192.681 245.715L190.729 244.591L192.005 259.949L192.305 264.369L192.531 265.342L191.705 264.893L187.95 262.72C187.725 262.571 187.5 262.571 187.424 262.646C187.274 262.72 187.199 262.945 187.199 263.17V263.47C187.199 263.994 187.575 264.593 188.025 264.893L194.183 268.489C194.408 268.639 194.708 268.639 194.934 268.714C195.234 268.714 195.61 268.639 195.835 268.489L209.877 260.398C210.328 260.173 210.628 259.499 210.553 258.975ZM201.617 257.252C200.04 258.151 198.313 257.477 197.862 255.754C197.412 253.956 198.313 251.783 199.89 250.884C201.467 249.91 203.194 250.659 203.644 252.382C204.17 254.18 203.269 256.353 201.617 257.252Z" fill="#37474F"/>
<path d="M187.352 262.645L192.157 259.873L193.134 266.316L187.352 262.645Z" fill="black"/>
<path d="M192.678 245.715L190.726 244.591L192.378 264.368C192.453 264.892 192.152 265.117 191.702 264.817L187.947 262.645C187.497 262.345 187.121 262.57 187.121 263.094V263.394C187.121 263.918 187.497 264.518 187.947 264.817L194.105 268.413C194.33 268.563 194.63 268.563 194.856 268.638L192.678 245.715Z" fill="#263238"/>
<path d="M201.619 257.252C200.417 257.926 199.216 257.776 198.465 256.877C198.99 256.952 199.591 256.802 200.192 256.503C201.769 255.604 202.745 253.356 202.219 251.633C202.069 251.184 201.844 250.734 201.619 250.435C202.595 250.584 203.346 251.259 203.646 252.382C204.172 254.18 203.271 256.353 201.619 257.252Z" fill="#263238"/>
<path d="M191.78 227.21L191.029 236.275C190.954 236.874 191.33 237.174 191.78 236.874C192.231 236.649 192.681 235.9 192.681 235.301L193.432 226.236C193.507 225.637 193.132 225.337 192.681 225.637C192.231 225.937 191.855 226.611 191.78 227.21Z" fill="#1F78E3"/>
<path d="M194.71 225.562L193.959 234.626C193.884 235.226 194.259 235.525 194.71 235.226C195.16 235.001 195.611 234.252 195.611 233.652L196.362 224.588C196.437 223.989 196.061 223.689 195.611 223.989C195.16 224.213 194.785 224.963 194.71 225.562Z" fill="#1F78E3"/>
<path d="M197.714 223.839L196.963 232.904C196.888 233.503 197.263 233.803 197.714 233.503C198.164 233.278 198.615 232.529 198.615 231.93L199.366 222.865C199.441 222.266 199.065 221.966 198.615 222.266C198.164 222.566 197.714 223.24 197.714 223.839Z" fill="#1F78E3"/>
<path d="M200.639 222.117L199.889 231.181C199.813 231.78 200.189 232.08 200.639 231.78C201.09 231.481 201.541 230.806 201.541 230.207L202.291 221.143C202.367 220.543 201.991 220.244 201.541 220.543C201.09 220.843 200.715 221.517 200.639 222.117Z" fill="#1F78E3"/>
<path d="M160.328 132.597C155.523 127.652 152.669 107.501 157.4 103.53H181.279C185.935 107.426 183.156 127.577 178.351 132.522C178.275 132.597 178.275 132.597 178.2 132.672C178.125 132.746 178.125 132.746 178.05 132.821C177.9 132.971 177.75 133.121 177.6 133.196C177.525 133.196 177.525 133.271 177.449 133.271C177.299 133.346 177.224 133.421 177.074 133.571C176.849 133.72 176.699 133.87 176.473 133.945C172.493 136.267 166.111 136.267 162.131 133.945C161.905 133.795 161.68 133.72 161.53 133.571C161.38 133.496 161.305 133.421 161.23 133.346C161.154 133.271 161.154 133.271 161.079 133.196C160.929 133.046 160.779 132.971 160.629 132.821C160.554 132.746 160.479 132.672 160.404 132.597C160.404 132.672 160.328 132.597 160.328 132.597Z" fill="#1F78E2"/>
<path opacity="0.3" d="M160.328 132.597C155.523 127.652 152.669 107.501 157.4 103.53H181.279C185.935 107.426 183.156 127.577 178.351 132.522C178.275 132.597 178.275 132.597 178.2 132.672C178.125 132.746 178.125 132.746 178.05 132.821C177.9 132.971 177.75 133.121 177.6 133.196C177.525 133.196 177.525 133.271 177.449 133.271C177.299 133.346 177.224 133.421 177.074 133.571C176.849 133.72 176.699 133.87 176.473 133.945C172.493 136.267 166.111 136.267 162.131 133.945C161.905 133.795 161.68 133.72 161.53 133.571C161.38 133.496 161.305 133.421 161.23 133.346C161.154 133.271 161.154 133.271 161.079 133.196C160.929 133.046 160.779 132.971 160.629 132.821C160.554 132.746 160.479 132.672 160.404 132.597C160.404 132.672 160.328 132.597 160.328 132.597Z" fill="black"/>
<path d="M179.177 101.957C184.659 105.104 184.659 110.273 179.177 113.419C173.695 116.566 164.909 116.566 159.428 113.419C153.946 110.273 153.946 105.104 159.428 101.957C164.909 98.8111 173.695 98.8111 179.177 101.957Z" fill="#1F78E2"/>
<path opacity="0.1" d="M179.177 101.957C184.659 105.104 184.659 110.273 179.177 113.419C173.695 116.566 164.909 116.566 159.428 113.419C153.946 110.273 153.946 105.104 159.428 101.957C164.909 98.8111 173.695 98.8111 179.177 101.957Z" fill="black"/>
<path d="M176.548 103.457C180.528 105.779 180.528 109.599 176.548 111.922C172.568 114.244 166.035 114.244 162.055 111.922C158.075 109.599 158.075 105.779 162.055 103.457C166.035 101.134 172.568 101.134 176.548 103.457Z" fill="#455A64"/>
<path d="M162.055 107.501C166.035 105.178 172.568 105.178 176.548 107.501C177.675 108.175 178.425 108.924 178.951 109.748C178.425 110.572 177.675 111.321 176.548 111.995C172.568 114.318 166.035 114.318 162.055 111.995C160.929 111.321 160.178 110.572 159.652 109.748C160.178 108.924 160.929 108.1 162.055 107.501Z" fill="#F5F5F5"/>
<path d="M182.549 68.3953L173.013 74.9127L182.024 71.4667C182.024 71.4667 182.099 74.6131 180.221 78.3587C180.221 78.3587 174.289 81.2803 170.985 84.2769L178.945 81.8047C178.945 81.8047 178.945 85.8501 177.668 90.5696C176.992 93.1166 174.665 97.7613 173.238 100.158C172.562 101.282 171.886 102.331 171.06 103.38C170.985 103.455 170.985 103.53 170.91 103.605C169.408 102.631 167.906 101.657 166.329 100.758C165.428 98.4355 164.377 92.7421 164.227 88.0975C163.551 70.4928 177.518 61.3534 188.406 58.7314C188.331 58.7314 184.351 63.0764 182.549 68.3953Z" fill="#1F78E2"/>
<path opacity="0.2" d="M182.549 68.3953L173.013 74.9127L182.024 71.4667C182.024 71.4667 182.099 74.6131 180.221 78.3587C180.221 78.3587 174.289 81.2803 170.985 84.2769L178.945 81.8047C178.945 81.8047 178.945 85.8501 177.668 90.5696C176.992 93.1166 174.665 97.7613 173.238 100.158C172.562 101.282 171.886 102.331 171.06 103.38C170.985 103.455 170.985 103.53 170.91 103.605C169.408 102.631 167.906 101.657 166.329 100.758C165.428 98.4355 164.377 92.7421 164.227 88.0975C163.551 70.4928 177.518 61.3534 188.406 58.7314C188.331 58.7314 184.351 63.0764 182.549 68.3953Z" fill="black"/>
<path d="M172.412 71.5415C171.736 72.6652 171.136 73.7889 170.685 74.9875C169.709 77.3847 168.958 79.9317 168.583 82.4788C167.681 87.5729 167.907 92.8917 169.409 97.836C169.484 97.9859 169.409 98.1357 169.258 98.1357C169.108 98.2106 168.958 98.1357 168.958 97.9859C167.456 92.9667 167.381 87.5729 168.357 82.4788C168.883 79.9317 169.559 77.3847 170.61 74.9875C171.136 73.7889 171.736 72.6652 172.412 71.5415Z" fill="#FAFAFA"/>
<path d="M140.195 73.6387C140.421 73.9383 144.025 78.4331 149.281 87.198L158.443 88.921L151.609 89.8949L155.064 95.7381L164.075 97.9106L156.941 98.8095C156.941 98.8095 158.668 105.776 163.624 108.773C166.403 110.421 167.754 110.721 168.58 109.972C169.181 109.447 169.406 106.151 170.007 103.229C170.608 100.308 170.758 95.5133 168.13 89.6701C167.454 88.0969 166.478 86.6736 165.351 85.3251C159.043 77.684 146.503 73.7136 140.195 73.6387Z" fill="#1F78E2"/>
<path opacity="0.3" d="M140.195 73.6387C140.421 73.9383 144.025 78.4331 149.281 87.198L158.443 88.921L151.609 89.8949L155.064 95.7381L164.075 97.9106L156.941 98.8095C156.941 98.8095 158.668 105.776 163.624 108.773C166.403 110.421 167.754 110.721 168.58 109.972C169.181 109.447 169.406 106.151 170.007 103.229C170.608 100.308 170.758 95.5133 168.13 89.6701C167.454 88.0969 166.478 86.6736 165.351 85.3251C159.043 77.684 146.503 73.7136 140.195 73.6387Z" fill="white"/>
<path opacity="0.1" d="M166.327 92.6666C167.379 95.2137 167.979 97.9106 168.205 100.308C168.355 101.806 168.43 107.35 168.13 110.271C168.355 110.196 168.505 110.121 168.655 109.972C169.256 109.447 169.481 106.151 170.082 103.229C170.683 100.308 170.833 95.5133 168.205 89.6701C167.529 88.0969 166.553 86.6736 165.426 85.3251C158.968 77.684 146.428 73.7136 140.195 73.6387C149.732 75.5115 159.87 82.1788 164.751 89.745C165.351 90.644 165.877 91.6179 166.327 92.6666Z" fill="black"/>
<path d="M149.73 76.9347C154.386 79.1821 158.817 82.1786 162.271 86.149C163.998 88.0967 165.425 90.3441 166.476 92.7414C167.452 95.1386 168.053 97.7606 168.278 100.308C167.828 97.7606 167.152 95.2135 166.101 92.8912C165.049 90.5689 163.698 88.3215 162.046 86.2988C160.394 84.2762 158.516 82.5532 156.414 80.98C154.236 79.4817 152.058 78.1333 149.73 76.9347Z" fill="#FAFAFA"/>
<path d="M197.27 80.0816C196.594 80.0067 195.768 80.0067 194.942 80.0816C192.389 80.2314 189.235 80.7558 186.006 81.7297C184.955 82.0293 183.828 82.4788 182.777 82.8534C182.251 83.0781 181.726 83.3028 181.2 83.5276C178.572 84.7262 176.094 86.2994 174.142 88.2471C173.165 89.221 172.339 90.2698 171.663 91.3935C171.588 91.5433 171.513 91.6931 171.363 91.843C171.138 92.2175 170.913 92.5921 170.762 92.9667C168.585 97.2367 168.209 100.308 168.134 103.679C168.059 106.301 168.81 109.373 169.336 109.897C169.411 109.972 169.486 110.047 169.561 110.047C170.312 110.571 171.513 110.347 173.766 109.223C178.347 106.975 180.524 100.758 180.524 100.758L174.367 99.3343L182.477 98.2106L186.006 93.3412L180.074 91.9179L188.259 91.0938C193.515 84.052 197.045 80.3812 197.27 80.0816Z" fill="#1F78E2"/>
<path opacity="0.1" d="M194.942 80.0815C192.389 80.2313 189.235 80.7557 186.006 81.7296C184.955 82.0292 183.828 82.4787 182.777 82.8533C182.251 83.078 181.726 83.3027 181.2 83.5275C178.572 84.7261 176.094 86.2993 174.142 88.247C173.165 89.2209 172.339 90.2697 171.663 91.3934C171.588 91.5432 171.513 91.693 171.363 91.8429C171.138 92.2174 170.913 92.592 170.762 92.9666C168.585 97.2366 168.209 100.308 168.134 103.679C168.059 106.301 168.81 109.373 169.336 109.897C169.411 109.972 169.486 110.047 169.561 110.047C169.711 110.122 169.861 110.197 170.011 110.272C169.711 106.151 172.264 95.9631 175.568 91.8429C178.947 87.5728 186.832 81.5797 197.27 79.9316C196.519 80.0815 195.768 80.0815 194.942 80.0815Z" fill="black"/>
<path d="M169.938 110.421C169.863 107.424 170.313 104.353 170.989 101.431C171.74 98.5097 172.791 95.663 174.443 93.041C175.269 91.7675 176.321 90.5689 177.372 89.5201C178.423 88.4713 179.625 87.4974 180.901 86.5985C183.379 84.8755 186.083 83.3772 188.936 82.4033C186.233 83.6768 183.605 85.1751 181.202 86.973C180 87.872 178.799 88.8459 177.747 89.8197C176.696 90.8685 175.645 91.9173 174.819 93.1908C173.167 95.663 172.04 98.5097 171.29 101.431C170.463 104.428 170.013 107.424 169.938 110.421C170.013 110.421 170.013 110.421 169.938 110.421Z" fill="#FAFAFA"/>
<path d="M240.297 173.199H247.956L246.755 180.616C246.68 180.915 246.454 181.29 246.004 181.515C244.953 182.114 243.301 182.114 242.324 181.515C241.874 181.29 241.649 180.915 241.573 180.616L240.297 173.199Z" fill="#FAFAFA"/>
<path d="M282.125 150.801H289.784L288.583 158.217C288.508 158.517 288.283 158.891 287.832 159.116C286.781 159.715 285.129 159.715 284.152 159.116C283.702 158.891 283.477 158.517 283.402 158.217L282.125 150.801Z" fill="#FAFAFA"/>
<path d="M183.828 141.662H191.488L190.286 149.079C190.211 149.378 189.986 149.753 189.535 149.977C188.484 150.577 186.832 150.577 185.856 149.977C185.405 149.753 185.18 149.378 185.105 149.079L183.828 141.662Z" fill="#FAFAFA"/>
<path d="M222.574 119.112H230.234L229.032 126.529C228.957 126.828 228.732 127.203 228.281 127.428C227.23 128.027 225.578 128.027 224.602 127.428C224.151 127.203 223.926 126.828 223.851 126.529L222.574 119.112Z" fill="#FAFAFA"/>
<path d="M177.742 102.706V138.14C177.742 140.462 179.394 143.384 181.422 144.507L184.425 146.23C184.425 146.23 184.425 146.23 184.5 146.23C185.702 146.905 187.579 147.204 189.081 147.054L234.287 170.952C234.362 173.199 236.014 175.896 237.966 177.095L240.97 178.818C241.045 178.893 241.195 178.893 241.27 178.968C241.345 178.968 241.345 179.042 241.42 179.042C241.42 179.042 241.42 179.042 241.496 179.042C243.148 179.792 245.4 179.866 247.203 179.342C247.428 179.267 247.653 179.192 247.878 179.117C247.878 179.117 247.954 179.117 247.954 179.042C248.104 178.968 248.254 178.893 248.404 178.818L291.958 153.797C293.985 152.598 295.637 149.751 295.637 147.429L295.712 102.631V85.5506C295.712 83.2283 294.06 80.3067 292.033 79.183L243.373 51.1654C241.345 49.9668 238.267 50.1167 236.239 51.3153L233.235 53.0383C231.208 54.2369 229.256 57.0836 228.955 59.4059L226.027 78.359L223.323 76.7858C220.845 75.3624 217.766 75.3624 215.288 76.7858L181.422 96.3382C179.394 97.4619 177.742 100.309 177.742 102.706Z" fill="#37474F"/>
<path d="M233.237 52.9638L236.241 51.2408C238.268 50.0422 241.347 49.9673 243.375 51.091L292.034 79.1085C292.26 79.2584 292.485 79.4082 292.41 79.3333C294.062 80.5319 295.489 82.7793 295.714 84.8769C295.414 83.004 293.912 82.3298 292.034 83.3786C292.26 83.2288 289.031 85.1016 289.031 85.1016C287.003 86.3002 283.699 86.3002 281.672 85.1016L233.237 57.2339C231.135 56.0352 231.135 54.1624 233.237 52.9638Z" fill="#455A64"/>
<path d="M177.742 102.706V138.14C177.742 140.463 179.394 143.384 181.422 144.508L184.425 146.231C184.425 146.231 184.425 146.231 184.5 146.231C185.702 146.905 187.279 147.205 188.856 147.055C189.982 146.98 191.034 146.68 191.86 146.231L226.102 126.529C228.129 125.33 229.781 122.483 229.781 120.161V84.7271C229.781 82.4048 228.129 79.4831 226.102 78.3594L223.398 76.7863C220.92 75.3629 217.841 75.3629 215.363 76.7863L181.497 96.3386C179.394 97.4623 177.742 100.309 177.742 102.706Z" fill="#263238"/>
<path d="M223.401 76.7861L226.105 78.3592C228.132 79.5578 228.132 81.4307 226.105 82.6293L191.863 102.331C189.835 103.53 188.183 106.377 188.183 108.699V144.133C188.183 146.455 186.531 147.429 184.504 146.231L181.5 144.508C179.472 143.309 177.82 140.462 177.82 138.14V102.631C177.82 100.309 179.472 97.3872 181.5 96.2635L215.366 76.7111C217.845 75.3627 220.848 75.3627 223.401 76.7861Z" fill="#455A64"/>
<path d="M188.105 108.624V144.058C188.105 146.38 186.453 147.354 184.425 146.156L181.422 144.433C179.394 143.234 177.742 140.387 177.742 138.065V102.631C177.742 101.432 178.193 100.159 178.793 99.0352L189.231 105.028C188.555 106.152 188.105 107.5 188.105 108.624Z" fill="#37474F"/>
<path d="M189.685 147.054C190.061 147.803 190.511 148.477 191.037 149.077C191.788 149.976 193.515 150.949 194.491 151.474C207.482 158.965 216.869 164.359 229.86 171.85C230.911 172.45 232.563 172.45 233.539 171.85L245.554 164.958L269.584 151.099C271.611 149.901 273.263 147.204 273.263 144.956C273.263 142.784 271.611 140.012 269.584 138.813L255.917 130.948L245.479 124.955L234.14 118.437C233.089 117.838 231.812 117.538 230.461 117.538C229.109 117.538 227.757 117.838 226.781 118.437L192.539 138.139C190.511 139.338 188.859 142.035 188.859 144.282C189.01 145.181 189.235 146.155 189.685 147.054Z" fill="#263238"/>
<path d="M229.863 163.909L190.815 141.435C189.764 140.836 188.938 141.36 188.938 142.484V146.23C188.938 147.428 189.764 148.852 190.815 149.451L229.863 171.925C230.914 172.524 231.74 172 231.74 170.876V167.131C231.74 165.857 230.914 164.434 229.863 163.909Z" fill="#37474F"/>
<path d="M234.288 100.234L269.657 120.535C271.684 121.734 273.336 124.581 273.336 126.903V134.394C273.336 136.717 271.684 139.638 269.657 140.762L235.415 160.464C233.387 161.663 230.083 161.663 228.056 160.464L192.687 140.163C190.66 138.964 189.008 136.117 189.008 133.795V126.304C189.008 123.981 190.66 121.06 192.687 119.936L226.929 100.234C228.957 99.0353 232.261 99.0353 234.288 100.234Z" fill="#37474F"/>
<path d="M231.734 145.406V161.363C233.086 161.363 234.438 161.063 235.414 160.464L269.656 140.762C271.683 139.563 273.336 136.716 273.336 134.394V126.903C273.336 124.73 271.909 122.033 270.031 120.76C271.683 121.958 271.533 123.681 269.656 124.805L235.414 144.582C234.363 145.107 233.086 145.406 231.734 145.406Z" fill="#263238"/>
<path d="M228.057 144.582L192.689 124.28C190.661 123.082 190.661 121.209 192.689 120.01L226.931 100.308C228.958 99.1095 232.262 99.1095 234.29 100.308L269.658 120.61C271.686 121.808 271.686 123.681 269.658 124.88L235.416 144.582C233.389 145.706 230.085 145.706 228.057 144.582Z" fill="#455A64"/>
<path d="M202.824 146.454C202.824 146.454 205.678 155.594 205.603 159.04C205.452 162.711 206.278 163.984 205.302 167.805C205.077 168.629 204.476 170.352 204.326 171.026C204.176 171.625 204.401 172.15 205.152 172.374C206.729 172.824 209.583 170.127 211.084 166.981C212.586 163.909 214.989 156.793 215.139 155.894C215.29 155.07 215.139 154.021 214.839 153.346C214.388 152.148 214.238 151.998 214.238 151.998C213.863 150.35 213.863 147.353 213.562 145.256L202.824 146.454Z" fill="#B16668"/>
<path d="M217.921 159.563C217.921 159.563 218.222 160.313 218.222 160.762C218.222 161.511 216.344 163.759 215.669 164.508C214.918 165.332 214.242 166.381 214.167 168.553C214.092 170.875 212.89 173.048 211.163 174.771C209.511 176.569 206.733 178.442 202.828 179.266C198.923 180.09 197.722 178.067 197.722 178.067C197.722 178.067 196.67 176.119 197.496 175.445C198.247 174.846 217.921 159.563 217.921 159.563Z" fill="#263238"/>
<path d="M214.239 152.072C214.389 152.072 214.54 152.072 214.84 152.447C214.915 152.597 215.516 154.395 215.966 155.294C216.492 156.342 217.844 158.065 217.919 159.564C216.792 162.335 213.939 164.058 213.338 166.68C212.737 169.302 212.437 172.449 208.007 175.37C203.651 178.292 199.371 178.292 197.944 177.318C196.518 176.344 196.743 174.696 199.146 171.774C201.699 168.703 203.801 161.661 203.801 161.661C204.102 160.687 204.327 159.639 204.477 158.665C204.627 157.691 204.477 156.642 204.477 155.668C204.477 155.219 204.477 154.694 204.778 154.32C205.078 153.945 205.529 153.795 205.979 153.645C206.655 153.421 207.406 153.196 208.157 153.121C208.908 153.046 209.659 153.196 210.334 153.571C210.785 153.87 211.16 154.32 211.611 154.544C212.287 154.844 213.113 154.769 213.639 154.32C214.465 153.645 214.389 152.971 214.314 152.522L214.239 152.072Z" fill="#455A64"/>
<path d="M210.638 172.973C210.638 172.973 209.286 169.602 204.931 169.228C200.575 168.853 198.848 170.951 198.097 172.224C197.196 173.723 196.145 176.419 197.872 177.393C199.749 178.442 202.002 178.367 205.682 176.869C209.436 175.446 210.638 172.973 210.638 172.973Z" fill="#FAFAFA"/>
<path d="M210.936 159.788C210.786 159.863 210.635 159.863 210.56 159.788C209.885 159.413 206.43 158.364 204.177 160.087C203.952 159.863 204.027 159.488 204.403 158.964C206.956 157.615 210.26 158.589 211.086 159.114C211.311 159.263 211.311 159.488 211.236 159.713C211.086 159.638 211.011 159.713 210.936 159.788Z" fill="#FAFAFA"/>
<path d="M203.501 162.56C203.351 162.186 203.652 161.586 203.877 161.362C206.355 160.238 209.434 161.212 210.185 161.661C210.41 161.811 210.41 162.036 210.335 162.261C210.26 162.336 210.185 162.41 210.109 162.41C209.959 162.485 209.809 162.485 209.734 162.41C209.058 161.961 205.754 160.987 203.501 162.56Z" fill="#FAFAFA"/>
<path d="M201.25 168.253C201.25 167.729 201.475 167.205 201.926 166.755C204.479 165.482 207.708 166.455 208.459 166.905C208.684 167.055 208.684 167.279 208.609 167.504C208.534 167.579 208.459 167.654 208.384 167.654C208.234 167.729 208.083 167.729 208.008 167.654C207.257 167.205 203.428 166.081 201.25 168.253Z" fill="#FAFAFA"/>
<path d="M209.214 165.032C209.064 165.106 208.913 165.106 208.838 165.032C208.162 164.657 204.783 163.608 202.53 165.256C202.455 164.882 202.606 164.432 202.981 163.983C205.459 162.859 208.538 163.833 209.289 164.282C209.514 164.432 209.514 164.657 209.439 164.882C209.439 164.957 209.289 165.032 209.214 165.032Z" fill="#FAFAFA"/>
<path d="M198.022 156.943C198.022 156.943 195.319 167.506 192.991 171.551C190.663 175.522 189.462 177.47 186.458 180.391C185.782 180.991 184.355 182.189 183.83 182.714C183.379 183.163 183.229 183.762 183.83 184.362C184.956 185.635 190.062 186.309 193.141 184.437C196.22 182.489 199.224 178.144 201.101 176.571C201.777 175.971 202.453 175.372 203.129 174.698C203.729 174.099 203.654 173.424 203.729 172.6C203.804 172.226 203.804 171.252 203.804 171.252C204.33 169.454 205.682 166.757 206.358 165.034L198.022 156.943Z" fill="#B16668"/>
<path d="M204.105 179.418C204.105 179.418 204.105 180.317 203.88 180.691C203.504 181.366 200.801 182.639 199.75 183.089C198.699 183.538 197.572 184.212 196.521 186.235C195.394 188.408 193.292 189.906 190.889 190.805C188.486 191.779 185.032 192.303 180.977 191.329C176.847 190.355 176.696 187.958 176.696 187.958C176.696 187.958 176.621 185.636 177.673 185.336C178.649 185.111 204.105 179.418 204.105 179.418Z" fill="#263238"/>
<path d="M203.956 170.728C204.031 170.803 204.256 170.878 204.331 171.327C204.331 171.477 204.106 173.425 204.106 174.548C204.181 175.747 204.631 177.994 204.031 179.418C201.703 181.515 198.249 181.89 196.521 184.137C194.719 186.385 193.067 189.157 187.585 189.981C182.104 190.805 178.124 188.857 177.148 187.284C176.247 185.711 177.223 184.287 180.752 182.564C184.507 180.766 189.688 175.073 189.688 175.073C190.364 174.324 191.04 173.425 191.64 172.526C192.241 171.702 192.542 170.578 192.992 169.679C193.217 169.23 193.443 168.78 193.893 168.555C194.344 168.331 194.869 168.406 195.32 168.406C196.071 168.48 196.897 168.63 197.648 168.855C198.399 169.155 199.075 169.604 199.45 170.203C199.75 170.653 199.901 171.252 200.201 171.702C200.652 172.301 201.478 172.601 202.228 172.451C203.355 172.226 203.58 171.552 203.73 171.028C203.881 171.177 203.956 170.728 203.956 170.728Z" fill="#455A64"/>
<path d="M191.266 188.856C191.266 188.856 191.491 185.111 187.511 182.789C183.532 180.541 180.978 181.74 179.702 182.564C178.2 183.538 175.947 185.71 177.149 187.358C178.425 189.156 180.678 190.13 184.808 190.355C188.938 190.654 191.266 188.856 191.266 188.856Z" fill="#FAFAFA"/>
<path d="M197.423 176.497C197.273 176.497 197.122 176.422 197.047 176.272C196.597 175.598 193.743 173.051 190.89 173.725C190.74 173.35 191.04 173.051 191.641 172.751C194.644 172.601 197.348 174.998 197.873 175.822C198.024 176.047 197.949 176.272 197.723 176.422C197.648 176.497 197.573 176.497 197.423 176.497Z" fill="#FAFAFA"/>
<path d="M189.164 175.823C189.239 175.373 189.69 174.924 189.99 174.849C192.844 174.924 195.397 177.171 195.847 177.92C195.997 178.145 195.922 178.37 195.697 178.519C195.622 178.594 195.472 178.594 195.397 178.594C195.247 178.594 195.096 178.519 195.021 178.37C194.646 177.77 191.942 175.373 189.164 175.823Z" fill="#FAFAFA"/>
<path d="M184.434 180.243C184.734 179.718 185.185 179.344 185.785 179.119C188.789 179.044 191.417 181.441 191.943 182.19C192.093 182.415 192.018 182.64 191.793 182.79C191.718 182.865 191.567 182.865 191.492 182.865C191.342 182.865 191.192 182.79 191.117 182.64C190.666 181.966 187.512 179.119 184.434 180.243Z" fill="#FAFAFA"/>
<path d="M193.446 180.766C193.296 180.766 193.146 180.691 193.071 180.541C192.62 179.867 189.842 177.395 186.988 177.994C187.138 177.545 187.439 177.245 187.964 177.021C190.818 177.095 193.371 179.343 193.822 180.092C193.972 180.317 193.897 180.541 193.671 180.691C193.671 180.766 193.521 180.766 193.446 180.766Z" fill="#FAFAFA"/>
<path d="M226.934 97.7607C222.278 100.607 206.134 108.174 199.375 113.418C197.423 114.916 196.672 117.088 196.672 121.883C196.747 128.4 199.976 150.949 199.976 150.949C200.577 152.223 202.003 149.975 202.003 149.975L228.962 121.134L226.934 97.7607Z" fill="#1F78E2"/>
<path opacity="0.3" d="M226.934 97.7607C222.278 100.607 206.134 108.174 199.375 113.418C197.423 114.916 196.672 117.088 196.672 121.883C196.747 128.4 199.976 150.949 199.976 150.949C200.577 152.223 202.003 149.975 202.003 149.975L228.962 121.134L226.934 97.7607Z" fill="black"/>
<path opacity="0.3" d="M201.629 144.207C207.636 140.012 228.287 112.818 228.287 112.818C225.959 110.496 225.283 103.154 225.283 103.154C224.082 105.851 224.757 110.196 225.358 111.769C223.856 112.893 215.146 118.886 209.138 122.856C207.636 123.83 206.059 125.104 205.384 127.576C203.807 133.569 201.629 142.933 201.629 144.207Z" fill="black"/>
<path d="M226.926 97.7607L257.714 107.35C255.686 112.968 255.01 115.89 253.133 118.811C251.256 121.733 249.228 124.804 240.743 128.101C232.558 131.322 222.646 134.468 220.618 135.217C219.116 135.817 218.215 138.588 217.239 142.334C216.188 146.23 215.887 149.301 211.307 157.167C206.801 164.883 205.9 166.606 205.9 166.606C205.9 166.606 199.968 166.756 196.363 162.935C196.363 162.935 204.023 135.742 205.6 130.872C206.501 128.176 206.576 126.677 210.33 123.905C213.484 121.508 227.602 112.668 227.602 112.668C227.602 112.668 222.871 105.102 226.926 97.7607Z" fill="#1F78E2"/>
<path opacity="0.3" d="M226.926 97.7607L257.714 107.35C255.686 112.968 255.01 115.89 253.133 118.811C251.256 121.733 249.228 124.804 240.743 128.101C232.558 131.322 222.646 134.468 220.618 135.217C219.116 135.817 218.215 138.588 217.239 142.334C216.188 146.23 215.887 149.301 211.307 157.167C206.801 164.883 205.9 166.606 205.9 166.606C205.9 166.606 199.968 166.756 196.363 162.935C196.363 162.935 204.023 135.742 205.6 130.872C206.501 128.176 206.576 126.677 210.33 123.905C213.484 121.508 227.602 112.668 227.602 112.668C227.602 112.668 222.871 105.102 226.926 97.7607Z" fill="black"/>
<path d="M228.506 55.361C227.905 54.9865 227.68 51.091 228.281 48.2443C228.882 45.3976 227.605 44.7234 226.929 45.6223C226.253 46.5213 226.103 47.2704 226.103 47.2704C226.103 47.2704 224.001 47.645 222.424 49.2182C220.847 50.7913 218.969 52.6642 219.495 56.8593C219.57 57.6834 219.645 59.7809 219.195 60.9795C216.942 67.1224 208.907 74.7636 207.105 82.9291C205.453 90.4205 211.31 91.1696 216.491 88.9222C222.424 86.3002 233.688 76.2619 233.688 76.2619L238.569 59.8558C235.415 59.8558 233.162 60.3802 228.957 64.3506C228.281 65.0249 225.352 67.497 225.352 67.497C226.404 65.0998 227.004 63.6015 228.281 61.7287" fill="#B16668"/>
<path d="M221.445 78.2842C220.394 80.9061 218.441 83.6779 218.441 83.6779C218.441 83.6779 220.995 82.1048 222.271 79.1831L221.445 78.2842Z" fill="#9A4A4D"/>
<path d="M239.393 59.8559C236.014 59.5563 233.311 60.0807 230.607 62.6277C228.129 64.95 225.576 67.4971 225.576 67.4971C223.849 71.5424 222.573 75.5128 221.371 78.2846C221.972 80.3073 223.098 82.7045 224.525 84.2028L238.192 73.2654L239.393 59.8559Z" fill="#FAFAFA"/>
<path d="M226.779 59.9299C227.755 58.4316 226.329 57.0083 226.329 57.0083L228.581 55.51V55.4351L219.57 55.0605C219.57 55.6599 219.57 56.2592 219.645 57.0083C219.721 57.3829 219.721 58.132 219.721 58.956L220.922 59.6303C221.147 59.7801 221.523 59.7801 221.748 59.6303L225.578 57.6825C226.779 58.132 226.779 59.9299 226.779 59.9299Z" fill="#9A4A4D"/>
<path d="M219.497 47.3462L235.267 39.9298C235.642 39.7799 235.943 39.7799 236.168 39.9298C236.393 40.0796 237.144 40.5291 237.369 40.6789C237.595 40.8287 237.745 41.0535 237.745 41.428L238.271 49.5936C238.346 50.2678 237.82 51.0918 237.219 51.3915L221.45 58.8079C221.15 58.9577 220.849 58.9577 220.624 58.8079C220.399 58.6581 219.497 58.1337 219.272 57.9839C219.047 57.834 218.972 57.6093 218.897 57.3096C218.747 55.287 218.521 51.2417 218.371 49.1441C218.371 48.4699 218.822 47.6458 219.497 47.3462Z" fill="#37474F"/>
<path d="M237.218 49.8187C237.218 50.1184 236.993 50.5678 236.693 50.7177L221.749 57.6846V58.0592L221.148 49.4442C221.148 49.1445 221.374 48.695 221.674 48.5452L236.918 41.3535L236.617 41.5033L237.218 49.8187Z" fill="#1F78E2"/>
<path opacity="0.75" d="M237.218 49.8187C237.218 50.1184 236.993 50.5678 236.693 50.7177L221.749 57.6846V58.0592L221.148 49.4442C221.148 49.1445 221.374 48.695 221.674 48.5452L236.918 41.3535L236.617 41.5033L237.218 49.8187Z" fill="white"/>
<path d="M237.598 49.9683C237.598 50.2679 237.372 50.7174 237.072 50.8672L221.828 58.0589V57.6843L236.771 50.6425C237.072 50.4927 237.297 50.0432 237.297 49.7435L236.696 41.4281L236.997 41.2783L237.598 49.9683Z" fill="#263238"/>
<path d="M220.624 58.8072C220.323 58.6573 219.497 58.133 219.272 57.9831C219.047 57.8333 218.972 57.6086 218.897 57.3089C218.747 55.2863 218.521 51.2409 218.371 49.1434C218.371 48.6939 218.596 48.1695 218.897 47.7949L220.173 48.5441C219.798 48.9186 219.573 49.443 219.648 49.8925C219.798 51.9152 220.023 55.9605 220.173 58.058C220.248 58.4326 220.399 58.7323 220.624 58.8072Z" fill="#263238"/>
<path d="M237.37 40.6789C237.145 40.5291 236.845 40.604 236.544 40.6789L220.775 48.0953C220.55 48.1702 220.399 48.32 220.249 48.4699L218.973 47.7207C219.123 47.5709 219.273 47.4211 219.498 47.3462L235.268 39.9298C235.643 39.7799 235.944 39.7799 236.169 39.9298C236.394 40.0796 237.145 40.5291 237.37 40.6789Z" fill="#455A64"/>
<path opacity="0.35" d="M220.773 53.3386C220.623 53.4136 220.473 53.6383 220.473 53.863C220.473 54.0878 220.623 54.1627 220.848 54.0878C220.998 54.0129 221.148 53.7881 221.148 53.5634C221.073 53.3386 220.923 53.2637 220.773 53.3386Z" fill="black"/>
<path d="M228.811 55.3621C229.262 54.9875 229.487 53.7889 230.238 52.6652C231.139 51.3917 233.317 51.6913 232.641 52.7401C231.965 53.7889 231.74 54.6879 231.289 57.3098C230.764 59.9318 229.712 60.3063 228.586 61.8046V55.5119L228.811 55.3621Z" fill="#B16668"/>
<path d="M250.507 61.1285C253.135 61.8027 261.47 65.0989 261.47 65.0989C263.272 66.5223 262.521 69.5937 262.521 73.1146C261.846 98.8099 257.34 110.272 257.34 110.272C247.278 112.444 228.88 106.076 225.426 98.4353C228.505 93.7907 230.607 86.8238 230.983 73.1146C231.283 62.9264 235.939 59.855 238.942 59.9299C238.942 59.855 245.325 59.7801 250.507 61.1285Z" fill="#EBEBEB"/>
<path d="M237.665 40.0034C237.815 39.3292 237.89 38.8048 237.665 38.2055C237.515 37.6062 237.215 36.9319 237.064 36.3326C236.839 35.5086 236.614 34.6096 236.388 33.7856C236.013 32.587 235.562 31.3883 235.562 30.1148C235.562 29.5155 235.788 28.9162 236.163 28.4667C236.764 27.9423 237.59 27.8674 238.341 28.0922C239.092 28.3169 239.693 28.8413 240.293 29.2908C240.293 28.3918 240.519 27.4179 241.044 26.6688C241.645 25.9197 242.621 25.5451 243.447 25.7699C244.273 25.9946 244.874 26.7437 245.55 27.343C246.751 28.3169 248.403 28.6915 249.98 29.141C251.632 29.5904 252.909 29.8901 254.411 31.0138C255.762 31.9877 257.114 34.1601 257.039 36.2577C257.039 37.0818 256.739 38.8797 256.588 39.8536C256.438 41.3518 256.213 42.8501 255.988 44.2734C254.786 51.7648 252.308 57.2334 244.724 56.6341C241.87 56.4094 237.815 54.6115 237.064 51.54C236.914 51.0156 236.989 50.4163 236.914 49.8919C236.839 48.7682 236.839 47.7194 236.839 46.5957C237.064 44.3484 237.29 42.1759 237.665 40.0034Z" fill="#263238"/>
<path d="M257.192 36.2578C257.192 36.2578 258.619 36.3327 259.445 38.2056C260.12 39.8536 260.421 42.4756 258.769 46.446C257.042 50.7161 255.69 51.9896 254.789 53.5628C254.113 54.6865 253.062 56.7841 253.062 56.7841L253.512 51.8398L253.963 48.3938C253.963 48.3938 251.86 47.8694 251.184 44.4234C250.509 40.5279 251.26 40.0784 251.26 40.0784L257.192 36.2578Z" fill="#455A64"/>
<path d="M253.808 48.0197C254.033 48.0946 254.334 48.1695 254.634 47.9448C255.31 47.5702 255.61 46.6713 256.211 46.1469C256.962 45.4727 259.365 44.6486 260.341 47.1208C261.317 49.6678 258.914 52.8142 257.112 53.4884C254.484 54.4623 253.583 51.8403 253.583 51.8403L252.607 62.3282C249.603 66.8979 246.374 67.2724 243.295 67.0477C240.216 66.823 240.442 63.9762 242.394 62.0285L242.619 58.5825C242.619 58.5825 239.766 58.8072 238.414 58.5076C236.161 57.9832 235.11 56.1853 234.584 53.6382C233.984 50.7166 233.984 47.6452 234.209 44.7235C234.509 40.828 235.936 36.6329 235.936 36.6329C235.936 36.6329 237.213 35.4343 241.042 35.3594C243.746 35.2845 247.125 35.1346 248.476 36.7827C248.552 37.6068 249.152 39.3298 251.255 40.004C250.429 45.5476 253.357 47.795 253.808 48.0197Z" fill="#B16668"/>
<path d="M248.553 37.3821C248.027 36.3333 246 35.8838 244.874 36.0336C242.996 36.3333 241.795 36.9326 240.218 37.457C239.167 37.8316 238.265 37.9814 236.764 38.0563C235.712 38.0563 234.436 37.7566 233.535 37.2322C232.634 36.7079 232.183 35.3594 232.108 34.3106C232.033 33.1869 232.634 32.1381 233.384 31.389C233.384 31.9134 233.685 32.3629 234.135 32.6625C234.586 32.9622 235.037 33.112 235.562 33.1869C234.811 32.5876 234.436 31.5388 234.661 30.565C234.811 29.5911 235.863 28.3925 236.839 28.0928C237.74 27.8681 238.791 27.5684 240.819 29.2165C242.696 30.8646 249.529 31.9134 248.553 37.3821Z" fill="#263238"/>
<path d="M242.623 58.6568C242.623 58.6568 247.804 57.9826 249.682 57.1585C250.958 56.6341 252.009 55.5854 252.31 54.9111C252.31 54.9111 251.859 56.4094 250.658 57.6829C249.231 59.2561 242.473 60.0052 242.473 60.0052L242.623 58.6568Z" fill="#9A4A4D"/>
<path d="M244.723 45.3971C244.648 45.9964 245.099 46.5208 245.699 46.5208C246.3 46.5957 246.751 46.1462 246.826 45.5469C246.901 44.9476 246.45 44.4232 245.849 44.4232C245.249 44.3483 244.798 44.7978 244.723 45.3971Z" fill="#263238"/>
<path d="M245.398 41.5774L247.576 42.7761C247.877 42.1767 247.651 41.3527 247.05 41.053C246.45 40.7534 245.699 40.9781 245.398 41.5774Z" fill="#263238"/>
<path d="M244.946 51.7656L240.516 53.0392C240.816 54.3127 242.093 55.0618 243.294 54.6872C244.571 54.3876 245.246 53.0392 244.946 51.7656Z" fill="#9A4A4D"/>
<path d="M243.369 54.6871C242.994 54.837 242.543 54.762 242.168 54.6871C242.318 53.5634 243.294 52.7394 244.421 52.8143C244.646 52.8143 244.796 52.8892 245.021 52.9641C244.721 53.7882 244.12 54.4624 243.369 54.6871Z" fill="#F28F8F"/>
<path d="M235.56 41.8765L237.963 41.2023C237.813 40.528 237.137 40.1535 236.461 40.3033C235.861 40.4531 235.41 41.2023 235.56 41.8765Z" fill="#263238"/>
<path d="M236.313 44.7229C236.238 45.3222 236.688 45.8466 237.289 45.8466C237.89 45.9215 238.34 45.472 238.415 44.8727C238.491 44.2734 238.04 43.749 237.439 43.749C236.839 43.749 236.313 44.1985 236.313 44.7229Z" fill="#263238"/>
<path d="M241.718 43.5254L240.967 50.4923L237.438 48.9941L241.718 43.5254Z" fill="#9A4A4D"/>
<path d="M244.727 176.644V141.21C244.727 138.888 246.379 135.967 248.406 134.843L282.648 115.141C284.3 114.242 284.3 111.844 282.648 110.945L281.822 110.496L284.751 91.5429C285.051 89.2206 287.004 86.3739 289.031 85.1753L292.035 83.4523C294.062 82.2537 295.714 83.2276 295.714 85.5499V102.63L295.639 147.428C295.639 149.751 293.987 152.672 291.96 153.796L248.406 178.817C246.379 179.941 244.727 178.967 244.727 176.644Z" fill="#263238"/>
<path d="M234.367 135.217V170.651C234.367 170.726 234.367 170.801 234.367 170.876C234.442 173.123 236.094 175.82 238.047 177.019L241.05 178.742C241.125 178.817 241.276 178.817 241.351 178.892C241.426 178.892 241.426 178.967 241.501 178.967C241.501 178.967 241.501 178.967 241.576 178.967C241.651 179.042 241.801 179.042 241.876 179.042C243.528 179.716 245.631 179.716 247.283 179.191C247.508 179.116 247.734 179.042 247.959 178.967C246.157 179.716 244.805 178.667 244.805 176.569V141.135C244.805 138.813 246.457 135.891 248.485 134.768L255.168 130.872L282.727 114.991C284.379 114.092 284.379 111.694 282.727 110.796L279.648 108.998C277.62 107.799 274.316 107.799 272.289 108.998L244.805 124.879L238.047 128.85C236.019 130.048 234.367 132.895 234.367 135.217Z" fill="#455A64"/>
<path d="M244.727 141.21V176.644C244.727 178.742 246.079 179.791 247.881 179.041C247.656 179.116 247.43 179.191 247.205 179.266C245.478 179.791 243.375 179.716 241.798 179.116C241.723 179.116 241.573 179.041 241.498 179.041C241.498 179.041 241.498 179.041 241.423 179.041C241.348 179.041 241.348 178.967 241.273 178.967C241.198 178.967 241.047 178.892 240.972 178.817L237.969 177.094C236.016 175.97 234.439 173.273 234.289 170.951C234.289 170.876 234.289 170.801 234.289 170.726V135.292C234.289 134.094 234.74 132.82 235.34 131.696L245.703 137.689C245.177 138.738 244.727 140.087 244.727 141.21Z" fill="#37474F"/>
<path d="M275.292 100.984C274.315 93.1926 273.489 89.1472 272.438 83.9033C270.035 71.7673 270.636 68.2464 261.775 65.999C261.775 65.999 258.546 68.7708 258.471 75.9625C258.396 81.4312 259.973 84.3528 259.973 84.3528L263.727 102.332C260.498 105.403 252.163 111.846 250.136 112.97C247.357 114.393 244.353 114.992 241.425 115.966C239.472 116.64 237.67 117.464 235.793 118.288C235.718 118.363 235.568 118.363 235.493 118.438C235.342 118.588 235.267 118.888 235.342 119.038C235.417 119.262 235.568 119.412 235.793 119.562C236.769 120.236 237.82 120.236 238.947 120.012C239.848 119.787 240.599 119.337 241.65 119.337C241.875 119.337 242.101 119.412 241.951 119.637C241.951 119.712 241.8 120.012 241.65 120.086C240.899 120.836 239.698 121.21 238.722 121.51C237.67 121.809 236.619 121.959 235.568 121.959C234.742 121.959 233.841 121.959 233.015 122.109C232.714 122.184 232.489 122.259 232.264 122.409C231.062 123.308 232.939 123.982 233.315 124.656C233.54 124.956 233.841 125.555 234.066 125.855C234.291 126.154 234.667 126.229 234.967 126.454C235.417 126.679 235.793 127.053 236.168 127.353C237.145 128.027 238.346 128.177 239.472 128.177C240.449 128.177 241.425 128.027 242.401 127.877C244.429 127.578 246.456 126.904 248.183 125.63C248.859 125.106 249.535 124.431 250.136 123.832C250.661 123.308 251.187 122.708 251.713 122.184C252.238 121.66 254.191 120.236 254.641 120.012C256.068 119.187 264.478 115.217 272.889 109.374C276.568 106.902 275.742 104.504 275.292 100.984Z" fill="#B16668"/>
<path d="M261.475 65.0996C267.707 67.1223 269.434 69.7442 270.035 71.7669C270.861 74.6136 271.537 77.9098 272.588 82.7791C274.09 90.0457 274.391 92.8924 274.391 92.8924C274.391 92.8924 270.936 95.6642 262 95.5893L258.997 83.8279C258.997 83.753 254.641 73.415 261.475 65.0996Z" fill="#FAFAFA"/>
<path d="M270.629 182.489L275.36 179.718L270.629 178.369V182.489Z" fill="#1F78E2"/>
<path opacity="0.6" d="M270.629 182.489L275.36 179.718L270.629 178.369V182.489Z" fill="white"/>
<path opacity="0.05" d="M270.629 182.489L275.36 179.718L270.629 178.369V182.489Z" fill="black"/>
<path d="M270.63 182.489L268.227 181.141V177.021L270.63 178.369V182.489Z" fill="#1F78E2"/>
<path opacity="0.75" d="M270.63 182.489L268.227 181.141V177.021L270.63 178.369V182.489Z" fill="white"/>
<path d="M294.582 192.152V196.571L329.2 176.645V172.225L294.582 192.152Z" fill="#1F78E2"/>
<path opacity="0.6" d="M294.582 192.152V196.571L329.2 176.645V172.225L294.582 192.152Z" fill="white"/>
<path opacity="0.1" d="M294.582 192.152V196.571L329.2 176.645V172.225L294.582 192.152Z" fill="black"/>
<path d="M294.583 196.571L292.18 195.148V190.803L294.583 192.151V196.571Z" fill="#1F78E2"/>
<path opacity="0.75" d="M294.583 196.571L292.18 195.148V190.803L294.583 192.151V196.571Z" fill="white"/>
<path d="M331.606 137.765L296.988 157.692V193.575L331.606 173.648V137.765Z" fill="#1F78E2"/>
<path opacity="0.6" d="M331.606 137.765L296.988 157.692V193.575L331.606 173.648V137.765Z" fill="white"/>
<path d="M296.988 157.691L265.824 139.787V175.596L296.988 193.575V157.691Z" fill="#1F78E2"/>
<path opacity="0.75" d="M296.988 157.691L265.824 139.787V175.596L296.988 193.575V157.691Z" fill="white"/>
<path d="M265.824 139.787L300.442 119.86L331.605 137.765L296.988 157.692L265.824 139.787Z" fill="#1F78E2"/>
<path opacity="0.85" d="M265.824 139.787L300.442 119.86L331.605 137.765L296.988 157.692L265.824 139.787Z" fill="white"/>
<path d="M294.584 170.127L268.227 154.92V174.248L294.584 189.38V170.127Z" fill="#1F78E2"/>
<path opacity="0.7" d="M294.584 170.127L268.227 154.92V174.248L294.584 189.38V170.127Z" fill="white"/>
<path opacity="0.1" d="M268.227 174.248L284.822 164.509L294.584 170.127V189.38L268.227 174.248Z" fill="black"/>
<path opacity="0.05" d="M268.227 174.248L284.822 164.509L268.227 154.92V174.248Z" fill="black"/>
<path d="M294.584 159.115L268.227 143.907V152.148L294.584 167.355V159.115Z" fill="#1F78E2"/>
<path opacity="0.85" d="M294.584 159.115L268.227 143.907V152.148L294.584 167.355V159.115Z" fill="white"/>
<path d="M286.401 156.118C286.401 156.493 285.274 156.118 283.848 155.369L279.342 152.822C277.915 151.998 276.789 151.024 276.789 150.65V149.976L286.326 155.519C286.401 155.444 286.401 155.744 286.401 156.118Z" fill="#455A64"/>
<g opacity="0.1">
<path d="M314.259 142.485C316.737 142.485 319.065 141.886 320.792 140.687C322.294 139.714 323.12 138.44 323.12 137.167C323.12 135.893 322.294 134.619 320.792 133.646C319.065 132.522 316.737 131.848 314.259 131.848C311.781 131.848 309.453 132.447 307.726 133.646C306.224 134.619 305.398 135.893 305.398 137.167C305.398 138.44 306.224 139.714 307.726 140.687C309.528 141.811 311.781 142.485 314.259 142.485Z" fill="black"/>
</g>
<path d="M308.477 136.716C308.477 136.566 308.477 136.416 308.552 136.266C308.852 134.543 310.354 132.671 311.33 132.071H317.187C318.239 132.671 319.74 134.543 319.966 136.266C319.966 136.416 320.041 136.566 320.041 136.716V136.791C319.966 137.615 319.44 138.439 318.389 139.038C316.136 140.312 312.456 140.312 310.204 139.038C309.152 138.439 308.552 137.615 308.552 136.791C308.477 136.791 308.477 136.791 308.477 136.716Z" fill="#37474F"/>
<path d="M317.035 131.996C318.537 132.895 318.537 134.319 317.035 135.218C315.533 136.117 312.98 136.117 311.478 135.218C309.976 134.319 309.976 132.895 311.478 131.996C312.98 131.098 315.533 131.098 317.035 131.996Z" fill="#455A64"/>
<path d="M313.43 112.443H315.007V132.97C315.007 133.119 314.932 133.269 314.781 133.344C314.481 133.494 313.955 133.494 313.655 133.344C313.505 133.269 313.43 133.119 313.43 132.97V112.443Z" fill="#263238"/>
<path d="M302.47 109.372L308.027 95.2139H320.567L326.124 109.372C326.95 111.62 325.824 113.942 322.82 115.665C318.089 118.362 310.43 118.362 305.774 115.665C302.77 113.942 301.644 111.545 302.47 109.372Z" fill="#1F78E2"/>
<path d="M318.765 98.5849C316.287 100.008 312.232 100.008 309.679 98.5849C307.201 97.1615 307.201 94.8392 309.679 93.341C312.157 91.9176 316.212 91.9176 318.765 93.341C321.318 94.8392 321.318 97.1615 318.765 98.5849Z" fill="#1F78E2"/>
<path opacity="0.3" d="M318.765 98.5849C316.287 100.008 312.232 100.008 309.679 98.5849C307.201 97.1615 307.201 94.8392 309.679 93.341C312.157 91.9176 316.212 91.9176 318.765 93.341C321.318 94.8392 321.318 97.1615 318.765 98.5849Z" fill="white"/>
<path d="M314.257 98.9604C315.834 98.9604 317.336 98.5859 318.387 97.9866C319.363 97.4622 319.889 96.713 319.889 96.0388C319.889 95.3646 319.363 94.6155 318.387 94.0911C317.261 93.4918 315.834 93.1172 314.257 93.1172C312.68 93.1172 311.178 93.4918 310.127 94.0911C309.151 94.6155 308.625 95.3646 308.625 96.0388C308.625 96.713 309.151 97.4622 310.127 97.9866C311.178 98.5859 312.68 98.9604 314.257 98.9604Z" fill="#1F78E2"/>
<path opacity="0.15" d="M314.257 98.9604C315.834 98.9604 317.336 98.5859 318.387 97.9866C319.363 97.4622 319.889 96.713 319.889 96.0388C319.889 95.3646 319.363 94.6155 318.387 94.0911C317.261 93.4918 315.834 93.1172 314.257 93.1172C312.68 93.1172 311.178 93.4918 310.127 94.0911C309.151 94.6155 308.625 95.3646 308.625 96.0388C308.625 96.713 309.151 97.4622 310.127 97.9866C311.178 98.5859 312.68 98.9604 314.257 98.9604Z" fill="black"/>
<path d="M333.555 44.5732L309.976 31.0139C309.451 30.7142 308.925 30.6393 308.55 30.8641C308.174 31.0888 305.846 32.4373 305.546 32.5871C305.171 32.8118 304.945 33.2613 304.945 33.8606V68.0211C304.945 69.2946 305.846 70.7929 306.898 71.3922L330.477 84.9515C331.002 85.2511 331.528 85.326 331.903 85.1013C332.279 84.8766 334.607 83.5281 334.907 83.3783C335.283 83.1536 335.508 82.7041 335.508 82.1048V47.9443C335.508 46.7457 334.607 45.2474 333.555 44.5732Z" fill="#455A64"/>
<path d="M335.508 48.019V82.1795C335.508 82.7788 335.282 83.2283 334.907 83.453C334.607 83.6778 332.504 84.8015 331.978 85.176C332.279 84.9513 332.429 84.5018 332.429 83.9774V49.742C332.429 49.1427 332.204 48.4685 331.828 47.7943L334.907 46.0713C335.282 46.6706 335.508 47.3448 335.508 48.019Z" fill="#263238"/>
<path d="M306.976 71.4664L330.555 85.0257C331.606 85.625 332.507 85.1756 332.507 83.902V49.7416C332.507 48.4681 331.606 46.9698 330.555 46.3705L306.976 32.8112C305.925 32.2119 305.023 32.6613 305.023 33.9349V68.0953C305.023 69.2939 305.849 70.7922 306.976 71.4664Z" fill="#455A64"/>
<path d="M334.907 46.0715L331.828 47.7945C331.453 47.1952 331.002 46.6708 330.477 46.3711L306.898 32.8118C306.372 32.5122 305.921 32.4373 305.621 32.5871C306.147 32.2874 308.249 31.0888 308.55 30.8641C308.925 30.6393 309.376 30.7142 309.976 31.0139L333.555 44.5732C334.081 44.9478 334.607 45.4722 334.907 46.0715Z" fill="#37474F"/>
<path d="M325.166 68.2519C324.621 67.2725 324.075 66.402 323.53 65.5314C322.439 63.6815 321.457 63.0286 320.585 64.4433C320.148 65.205 318.839 65.3138 318.185 64.4433C316.331 62.0493 314.913 59.3288 314.04 55.9554C313.713 54.432 314.367 52.9085 315.24 52.5821C315.676 52.3644 316.113 52.038 316.113 51.0586C316.113 49.644 313.931 43.8766 313.058 43.0061C312.731 42.5708 312.404 42.462 311.968 42.3532C310.004 42.2444 307.604 44.6383 308.368 48.1205C310.768 58.3494 312.622 63.6815 319.167 72.1693C322.003 75.8692 325.493 73.8016 326.148 72.387C326.802 70.7547 325.93 69.5577 325.166 68.2519Z" fill="#FAFAFA"/>
<path d="M320.037 46.1623C324.182 49.5356 326.145 53.6707 326.69 60.4175C326.69 61.0704 326.581 61.8321 327.127 62.1586C327.672 62.485 327.563 61.5056 327.563 60.9616C327.454 54.106 324.618 47.6857 320.146 44.8565C319.928 44.7476 319.273 43.9859 319.164 44.9653C319.164 45.727 319.709 45.9446 320.037 46.1623Z" fill="#FAFAFA"/>
<path d="M320.258 48.7726C319.821 48.4461 319.385 47.902 319.276 48.6637C319.167 49.5343 319.712 49.7519 320.148 50.0784C322.766 52.4724 323.639 54.4311 324.075 58.5662C324.184 59.2191 323.966 59.9808 324.621 60.1985C325.057 60.3073 324.948 59.5456 324.948 59.1103C324.948 55.3017 322.766 50.7313 320.258 48.7726Z" fill="#FAFAFA"/>
<path d="M319.82 52.1469C319.601 52.0381 319.274 51.9293 319.165 52.2557C319.056 52.7998 319.274 53.1263 319.601 53.4527C320.692 54.3233 321.238 55.6291 321.347 57.2614C321.347 57.6966 321.565 58.1319 321.783 58.2407C322.11 58.3495 322.219 57.9143 322.219 57.3702C322.328 55.6291 321.019 52.7998 319.82 52.1469Z" fill="#FAFAFA"/>
<path d="M334.765 30.1149L333.413 27.0435C333.338 26.8187 333.038 26.594 332.738 26.5191C332.362 26.4441 332.062 26.2943 331.686 26.0696C331.611 26.0696 331.536 25.9947 331.536 26.0696C331.461 26.0696 331.461 26.1445 331.461 26.2194L330.785 28.0173C330.71 28.317 330.485 28.4668 330.259 28.5417C330.034 28.6166 329.734 28.5417 329.509 28.317L327.181 26.2194C326.805 25.9198 326.58 25.3204 326.655 24.7961L326.955 22.4737C326.955 22.249 326.88 21.7995 326.73 21.5748C326.355 21.0504 325.979 20.526 325.679 19.9267C325.529 19.7019 325.228 19.5521 325.003 19.5521H323.426C322.9 19.5521 322.375 19.1776 322.225 18.7281L320.948 15.2821C320.873 15.0573 320.873 14.7577 320.948 14.5329C321.098 14.3082 321.248 14.0835 321.549 14.0085L322.825 13.5591C322.976 13.4841 323.126 13.2594 323.051 13.1096C322.976 12.5852 322.9 11.9859 322.9 11.4615C322.9 11.1618 322.75 10.7873 322.525 10.5625L320.497 8.39004C320.197 8.01548 319.972 7.41617 320.122 6.96669L320.723 4.64438C320.798 4.34472 320.948 4.11998 321.248 4.04507C321.474 3.97016 321.774 4.04507 321.999 4.1949L324.102 5.76808C324.252 5.84299 324.402 5.76808 324.477 5.69316C324.628 5.46842 324.778 5.3186 325.003 5.16877C325.153 5.01894 325.303 4.71929 325.228 4.49455L324.327 1.42311C324.252 1.12345 324.252 0.898713 324.402 0.673973C324.552 0.449233 324.778 0.299407 325.078 0.224494L326.73 -0.00024625C327.256 -0.0751595 327.781 0.224494 328.007 0.673973L329.358 3.74542C329.433 3.97016 329.734 4.1949 330.034 4.26981C330.41 4.34472 330.71 4.49455 331.086 4.71929C331.161 4.71929 331.236 4.7942 331.236 4.71929C331.311 4.71929 331.311 4.64438 331.311 4.56946L331.987 2.77155C332.062 2.47189 332.287 2.32207 332.512 2.24715C332.738 2.17224 333.038 2.24715 333.263 2.47189L335.591 4.56946C335.967 4.86912 336.192 5.46842 336.117 5.99282L335.816 8.31513C335.816 8.53987 335.891 8.98935 336.042 9.21409C336.417 9.73848 336.793 10.2629 337.093 10.8622C337.243 11.0869 337.543 11.2367 337.769 11.2367H339.346C339.871 11.2367 340.397 11.6113 340.547 12.0608L341.824 15.5068C341.899 15.7315 341.899 16.0312 341.824 16.2559C341.749 16.4807 341.523 16.7054 341.223 16.7803L339.946 17.2298C339.796 17.3047 339.646 17.5295 339.721 17.6793C339.796 18.2037 339.871 18.803 339.871 19.3274C339.871 19.627 340.022 20.0016 340.247 20.2263L342.274 22.3988C342.575 22.7734 342.8 23.3727 342.65 23.8222L342.049 26.1445C341.974 26.4441 341.824 26.6689 341.523 26.7438C341.298 26.8187 340.998 26.7438 340.772 26.594L338.67 25.0208C338.52 24.9459 338.369 25.0208 338.294 25.0957C338.144 25.3204 337.994 25.4703 337.769 25.6201C337.619 25.7699 337.468 26.0696 337.543 26.2943L338.445 29.3658C338.52 29.6654 338.52 29.8902 338.369 30.1149C338.219 30.3396 337.994 30.4895 337.694 30.5644L336.042 30.7891C335.967 30.7891 335.967 30.7891 335.891 30.7891C335.441 30.7891 334.915 30.4895 334.765 30.1149ZM339.12 24.4215L341.223 25.9947H341.298C341.298 25.9947 341.298 25.9947 341.298 25.9198L341.899 23.5974C341.974 23.3727 341.824 22.9981 341.674 22.8483L339.646 20.6758C339.346 20.3762 339.12 19.7769 339.12 19.3274C339.12 18.803 339.045 18.2786 338.97 17.7542C338.895 17.2298 339.195 16.7054 339.721 16.4807L340.998 16.0312C341.073 16.0312 341.148 15.9563 341.148 15.8814C341.148 15.8065 341.148 15.7315 341.148 15.6566L339.871 12.2106C339.796 11.9859 339.571 11.8361 339.346 11.8361H337.769C337.318 11.8361 336.717 11.5364 336.492 11.0869C336.192 10.5625 335.816 10.0381 335.441 9.51374C335.141 9.13917 334.99 8.53987 335.065 8.09039L335.366 5.76808C335.366 5.54334 335.291 5.16877 335.065 5.01894L332.662 3.0712C332.662 2.99629 332.662 2.99629 332.587 2.99629C332.587 2.99629 332.587 2.99629 332.512 3.0712L331.912 4.86912C331.836 5.09386 331.611 5.3186 331.386 5.39351C331.161 5.46842 330.86 5.46842 330.635 5.3186C330.335 5.16877 330.034 5.01894 329.659 4.94403C329.283 4.7942 328.758 4.41964 328.532 3.97016L327.181 0.898713C327.106 0.748887 326.88 0.59906 326.655 0.59906L325.003 0.8238C324.928 0.8238 324.853 0.898713 324.853 0.898713C324.853 0.973626 324.853 0.973626 324.853 1.04854L325.754 4.11998C325.904 4.56946 325.679 5.16877 325.303 5.54334C325.153 5.69316 325.003 5.84299 324.853 5.99282C324.477 6.4423 323.877 6.51721 323.426 6.21756L321.324 4.64438H321.248C321.248 4.64438 321.248 4.64438 321.248 4.71929L320.648 7.0416C320.573 7.26634 320.723 7.64091 320.873 7.79074L322.9 9.96322C323.201 10.2629 323.426 10.8622 323.501 11.3117C323.501 11.8361 323.576 12.3604 323.651 12.8848C323.726 13.4092 323.426 13.9336 322.9 14.1584L321.549 14.6078C321.474 14.6078 321.399 14.6828 321.399 14.7577C321.399 14.8326 321.399 14.9075 321.399 14.9824L322.675 18.4284C322.75 18.6532 322.976 18.803 323.201 18.803H324.778C325.228 18.803 325.829 19.1026 326.054 19.5521C326.355 20.0765 326.73 20.6009 327.106 21.1253C327.406 21.4999 327.556 22.0992 327.481 22.5487L327.181 24.871C327.181 25.0957 327.256 25.4703 327.481 25.6201L329.809 27.7177C329.884 27.7177 329.884 27.7926 329.884 27.7926C329.884 27.7926 329.884 27.7926 329.959 27.7177L330.635 25.9198C330.71 25.695 330.935 25.4703 331.161 25.3954C331.386 25.3204 331.686 25.3204 331.912 25.4703C332.212 25.6201 332.512 25.7699 332.888 25.8448C333.263 25.9947 333.789 26.3692 334.014 26.8187L335.366 29.8902C335.441 30.04 335.666 30.1898 335.891 30.1898L337.543 29.9651C337.619 29.9651 337.694 29.8902 337.694 29.8902C337.694 29.8152 337.694 29.8152 337.694 29.7403L336.793 26.6689C336.642 26.2194 336.868 25.6201 337.243 25.2455C337.393 25.0957 337.543 24.9459 337.694 24.7961C337.919 24.4964 338.219 24.4215 338.52 24.4215C338.67 24.2717 338.895 24.3466 339.12 24.4215ZM329.884 20.6758C327.256 18.3535 325.679 14.0835 326.43 11.2367C326.73 9.96322 327.481 9.06426 328.532 8.6897C329.809 8.31513 331.386 8.83952 332.813 10.113C335.441 12.4354 337.018 16.7054 336.267 19.5521C335.967 20.8256 335.216 21.7246 334.164 22.0992C333.864 22.1741 333.564 22.249 333.263 22.249C332.212 22.249 331.01 21.7246 329.884 20.6758ZM328.683 9.36391C327.932 9.58865 327.331 10.2629 327.106 11.3866C326.505 14.0085 327.932 17.9789 330.335 20.1514C331.611 21.2751 332.888 21.7246 333.939 21.425C334.69 21.2002 335.291 20.526 335.516 19.4023C336.117 16.7803 334.69 12.8099 332.287 10.6374C331.311 9.73848 330.259 9.289 329.358 9.289C329.133 9.289 328.908 9.36391 328.683 9.36391Z" fill="#1F78E2"/>
<path d="M313.509 22.3995L312.533 20.227C312.458 20.0772 312.232 19.9274 312.082 19.8525C311.857 19.7776 311.557 19.7026 311.331 19.5528C311.331 19.5528 311.256 19.5528 311.181 19.6277L310.731 20.9013C310.656 21.126 310.505 21.2758 310.28 21.3507C310.055 21.4256 309.829 21.3507 309.679 21.2009L308.027 19.7026C307.727 19.4779 307.577 19.0284 307.652 18.6539L307.877 17.0058C307.877 16.8559 307.802 16.5563 307.727 16.4065C307.427 16.0319 307.201 15.6573 306.976 15.2078C306.901 15.058 306.676 14.9831 306.525 14.9831H305.399C305.024 14.9831 304.573 14.6834 304.498 14.3089L303.597 11.8367C303.522 11.612 303.522 11.3873 303.597 11.2374C303.672 11.0127 303.822 10.9378 304.047 10.8629L305.024 10.5632C305.099 10.5632 305.174 10.4134 305.174 10.3385C305.099 9.96391 305.099 9.51443 305.024 9.13986C305.024 8.99004 304.873 8.69038 304.798 8.54056L303.296 6.96738C303.071 6.66772 302.921 6.21825 302.996 5.84368L303.372 4.19559C303.447 3.97085 303.597 3.82102 303.747 3.74611C303.972 3.67119 304.198 3.74611 304.348 3.89593L305.85 5.01963C305.925 5.09455 306 5.01963 306 4.94472C306.15 4.79489 306.225 4.64507 306.375 4.57015C306.45 4.49524 306.525 4.2705 306.525 4.19559L305.85 2.0231C305.775 1.79836 305.85 1.57362 305.925 1.42379C306 1.27397 306.225 1.12414 306.45 1.12414L307.652 0.974314C308.027 0.899401 308.478 1.12414 308.628 1.49871L309.604 3.67119C309.679 3.82102 309.905 3.97085 310.055 4.04576C310.28 4.12067 310.58 4.19559 310.806 4.34541C310.806 4.34541 310.881 4.34541 310.956 4.2705L311.406 2.99697C311.482 2.77223 311.632 2.62241 311.857 2.54749C312.082 2.47258 312.308 2.54749 312.458 2.69732L314.11 4.19559C314.41 4.42033 314.56 4.86981 314.485 5.24437L314.335 6.74264C314.335 6.89246 314.41 7.19212 314.485 7.34194C314.786 7.71651 315.011 8.09108 315.236 8.54056C315.311 8.69038 315.537 8.7653 315.687 8.7653H316.813C317.189 8.7653 317.639 9.06495 317.714 9.43952L318.615 11.9117C318.69 12.1364 318.69 12.3611 318.615 12.511C318.54 12.7357 318.39 12.8106 318.165 12.8855L317.189 13.1852C317.113 13.1852 317.038 13.335 317.038 13.4099C317.113 13.7845 317.113 14.234 317.189 14.6085C317.189 14.7584 317.339 15.058 317.414 15.2078L318.916 16.781C319.141 17.0807 319.291 17.5302 319.216 17.9047L318.841 19.5528C318.765 19.7776 318.615 19.9274 318.465 20.0023C318.24 20.0772 318.015 20.0023 317.864 19.8525L316.363 18.7288C316.287 18.6539 316.212 18.7288 316.212 18.8037C316.062 18.9535 315.987 19.1033 315.837 19.1782C315.762 19.2532 315.687 19.4779 315.687 19.5528L316.363 21.7253C316.438 21.95 316.363 22.1748 316.287 22.3246C316.212 22.4744 315.987 22.6243 315.762 22.6243L314.56 22.7741C314.485 22.7741 314.485 22.7741 314.41 22.7741C314.035 22.9988 313.659 22.7741 313.509 22.3995ZM316.738 18.2793L318.165 19.403L318.54 17.7549C318.54 17.6051 318.54 17.3803 318.39 17.3054L316.888 15.7322C316.663 15.5075 316.513 15.058 316.438 14.7584C316.438 14.3838 316.363 14.0092 316.287 13.6347C316.212 13.2601 316.438 12.8106 316.888 12.6608L317.864 12.3611C317.939 12.3611 317.939 12.2862 317.939 12.2862V12.2113L317.038 9.73917C316.963 9.58934 316.813 9.51443 316.738 9.51443H315.612C315.236 9.51443 314.861 9.28969 314.635 8.91512C314.41 8.54056 314.185 8.16599 313.884 7.79142C313.659 7.49177 313.584 7.04229 313.584 6.74264L313.809 5.09455C313.809 4.94472 313.734 4.71998 313.659 4.64507L312.007 3.1468L311.632 4.34541C311.557 4.57015 311.406 4.71998 311.256 4.79489C311.031 4.86981 310.806 4.86981 310.656 4.79489C310.43 4.71998 310.205 4.57015 309.98 4.49524C309.679 4.42033 309.304 4.12067 309.154 3.74611L308.177 1.57362C308.102 1.49871 308.027 1.42379 307.877 1.42379L306.676 1.57362L306.601 1.27397V1.72345L307.276 3.89593C307.351 4.2705 307.276 4.71998 306.976 4.94472C306.901 5.01963 306.751 5.16946 306.676 5.24437C306.375 5.61894 305.925 5.69385 305.549 5.3942L304.122 4.2705L303.747 5.91859C303.747 6.06842 303.747 6.29316 303.897 6.36807L305.399 7.94125C305.624 8.16599 305.775 8.61547 305.85 8.91512C305.85 9.28969 305.925 9.66426 306 10.0388C306.075 10.4134 305.85 10.8629 305.399 11.0127L304.423 11.3123C304.348 11.3123 304.348 11.3873 304.348 11.3873V11.4622L305.249 13.9343C305.324 14.0841 305.474 14.1591 305.549 14.1591H306.676C307.051 14.1591 307.427 14.3838 307.652 14.7584C307.877 15.1329 308.102 15.5075 308.403 15.8821C308.628 16.1817 308.703 16.6312 308.703 16.9308L308.478 18.5789C308.478 18.7288 308.553 18.9535 308.628 19.0284L310.28 20.5267L310.731 19.2532C310.806 19.0284 310.956 18.8786 311.106 18.8037C311.331 18.7288 311.557 18.7288 311.707 18.8037C311.932 18.8786 312.157 19.0284 312.383 19.1033C312.683 19.1782 313.058 19.4779 313.209 19.8525L314.185 22.025C314.26 22.0999 314.335 22.1748 314.485 22.1748L315.687 22.025L315.762 21.95L315.086 19.7775C315.011 19.403 315.086 18.9535 315.386 18.7288C315.461 18.6539 315.612 18.504 315.687 18.4291C315.837 18.2044 316.062 18.1295 316.287 18.1295C316.438 18.1295 316.588 18.2044 316.738 18.2793ZM310.055 15.6573C308.177 13.9343 307.051 10.8629 307.577 8.84021C307.802 7.86634 308.328 7.19212 309.154 6.96738C310.055 6.66772 311.256 7.04229 312.308 8.01616C314.185 9.73917 315.311 12.8106 314.786 14.8333C314.56 15.8071 314.035 16.4814 313.209 16.7061C312.983 16.781 312.758 16.781 312.533 16.781C311.707 16.781 310.881 16.4065 310.055 15.6573ZM309.229 7.6416C308.703 7.79142 308.328 8.31582 308.102 8.99004C307.652 10.8629 308.703 13.6347 310.43 15.2078C311.331 16.0319 312.232 16.3315 312.908 16.1068C313.434 15.957 313.809 15.4326 314.035 14.7584C314.485 12.8855 313.434 10.1137 311.707 8.54056C311.031 7.94125 310.28 7.56668 309.679 7.56668C309.529 7.56668 309.379 7.56668 309.229 7.6416Z" fill="#1F78E2"/>
<path d="M292.711 61.0546C292.185 61.0546 291.584 60.9048 291.059 60.5302C290.984 60.4553 290.908 60.4553 290.833 60.3804C290.608 60.2306 290.533 59.9309 290.683 59.6312L292.56 55.8856L291.584 52.7392L289.857 51.6904L288.13 55.1364C288.055 55.2863 287.905 55.3612 287.755 55.3612C287.454 55.3612 287.154 54.7619 287.079 54.4622C286.778 53.4134 286.703 52.3647 286.703 51.3908C286.703 48.8437 287.604 47.1207 289.106 46.7462V28.0178C287.604 26.0701 286.628 23.1485 286.703 20.6014C286.703 18.4289 287.379 16.8557 288.505 16.1815C289.332 15.732 290.308 15.807 291.359 16.4063C291.434 16.4812 291.509 16.4812 291.584 16.5561C291.81 16.7059 291.885 17.0056 291.734 17.3052L289.857 21.0509L290.833 24.1973L292.56 25.246L294.288 21.8C294.363 21.6502 294.513 21.5753 294.663 21.5753C294.963 21.5753 295.264 22.1746 295.339 22.4742C295.639 23.523 295.714 24.5718 295.714 25.5457C295.714 28.0927 294.813 29.8158 293.311 30.1903V48.9186C294.813 50.8664 295.789 53.788 295.714 56.3351C295.714 58.5075 295.039 60.0807 293.912 60.7549C293.462 60.9048 293.086 61.0546 292.711 61.0546ZM289.632 50.9413L292.035 52.3647L293.161 55.9605L291.209 59.9309C291.209 60.0058 291.284 60.0058 291.359 60.0807C292.185 60.6051 292.936 60.6051 293.612 60.2306C294.588 59.7062 295.189 58.2079 295.189 56.3351C295.189 53.8629 294.288 51.0911 292.786 49.2183L292.711 49.1434V29.7408H292.936C294.288 29.591 295.114 27.9429 295.114 25.6206C295.114 24.7216 294.963 23.6729 294.738 22.699C294.738 22.5492 294.663 22.4742 294.588 22.3993L292.786 26.0701L290.383 24.6467L289.256 21.0509L291.209 17.0805C291.209 17.0056 291.134 17.0056 291.059 16.9307C290.233 16.4063 289.482 16.4063 288.806 16.7059C287.83 17.2303 287.229 18.7286 287.229 20.6014C287.229 23.0736 288.13 25.8453 289.632 27.7182L289.707 27.7931V47.1956H289.482C288.13 47.3455 287.304 48.9936 287.304 51.3159C287.304 52.2897 287.454 53.2636 287.679 54.2375C287.679 54.3873 287.755 54.4622 287.83 54.5371L289.632 50.9413Z" fill="#1F78E2"/>
<path d="M186.077 5.61823L213.561 21.4249C213.861 21.5748 214.087 22.0242 214.087 22.3988V41.5766C214.087 41.9512 213.861 42.3257 213.561 42.5505L211.608 43.6742C211.308 43.824 210.782 43.824 210.482 43.6742L182.998 27.8675C182.698 27.7177 182.473 27.2682 182.473 26.8936V7.7158C182.473 7.34124 182.698 6.96667 182.998 6.74193L184.951 5.61823C185.251 5.4684 185.777 5.4684 186.077 5.61823Z" fill="#1F78E2"/>
<path d="M210.933 43.3743V24.1216C210.933 23.747 210.707 23.3724 210.407 23.1477L182.998 7.341C182.698 7.19118 182.473 7.341 182.473 7.64066V26.8185C182.473 27.193 182.698 27.5676 182.998 27.7923L210.482 43.599C210.707 43.8238 210.933 43.674 210.933 43.3743Z" fill="#1F78E2"/>
<path d="M210.933 43.3743V24.1216C210.933 23.747 210.707 23.3724 210.407 23.1477L182.998 7.341C182.698 7.19118 182.473 7.341 182.473 7.64066V26.8185C182.473 27.193 182.698 27.5676 182.998 27.7923L210.482 43.599C210.707 43.8238 210.933 43.674 210.933 43.3743Z" fill="#1F78E2"/>
<path opacity="0.2" d="M210.406 43.6745C210.707 43.8243 211.232 43.8243 211.533 43.6745L213.485 42.5508C213.785 42.401 214.011 41.9515 214.011 41.5769V22.3991C214.011 22.2493 213.936 22.0245 213.86 21.7998L210.782 23.5228C210.857 23.6726 210.932 23.8974 210.932 24.0472V43.225C210.932 43.6745 210.707 43.8243 210.406 43.6745Z" fill="black"/>
<path opacity="0.4" d="M182.395 7.56598C182.47 7.26632 182.695 7.19141 182.92 7.34124L210.404 23.2229C210.554 23.2978 210.704 23.4476 210.779 23.5974L213.858 21.8744C213.783 21.7246 213.633 21.5748 213.483 21.4999L186.074 5.61823C185.774 5.4684 185.248 5.4684 184.948 5.61823L182.995 6.74193C182.695 6.89176 182.47 7.26632 182.395 7.56598Z" fill="white"/>
<path d="M215.589 36.4072C215.965 36.1824 218.518 34.7591 218.593 34.6842C218.818 34.5343 218.968 34.1598 218.668 33.935L213.937 28.0918L210.934 29.8148L215.589 35.658C215.89 35.8828 215.815 36.1824 215.589 36.4072Z" fill="#1F78E2"/>
<path opacity="0.4" d="M215.589 36.4072C215.965 36.1824 218.518 34.7591 218.593 34.6842C218.818 34.5343 218.968 34.1598 218.668 33.935L213.937 28.0918L210.934 29.8148L215.589 35.658C215.89 35.8828 215.815 36.1824 215.589 36.4072Z" fill="white"/>
<path d="M210.934 29.7402L215.664 35.5835C215.965 35.958 215.739 36.4075 215.364 36.4075L211.009 36.857L210.934 29.7402Z" fill="#1F78E2"/>
<path d="M204.397 26.8932C204.397 27.6423 203.871 27.8671 203.195 27.4925L187.951 18.7276C187.276 18.3531 186.75 17.4541 186.75 16.705C186.75 15.9558 187.276 15.7311 187.951 16.1057L203.195 24.8705C203.796 25.2451 204.397 26.1441 204.397 26.8932Z" fill="#FAFAFA"/>
<path d="M207.776 34.7589C207.776 35.508 207.25 35.7328 206.574 35.3582L187.951 24.6456C187.276 24.271 186.75 23.3721 186.75 22.6229C186.75 21.8738 187.276 21.6491 187.951 22.0236L206.574 32.7362C207.25 33.1108 207.776 34.0098 207.776 34.7589Z" fill="#FAFAFA"/>
<path d="M90.6416 64.5021L87.713 58.9585L90.116 52.1414V47.9463L82.832 52.1414V56.3366L85.9859 61.7303C86.061 61.8053 86.1361 61.8802 86.2112 61.9551L90.6416 64.5021Z" fill="#1F78E2"/>
<path opacity="0.2" d="M90.6416 64.5021L87.713 58.9585L90.116 52.1414V47.9463L82.832 52.1414V56.3366L85.9859 61.7303C86.061 61.8053 86.1361 61.8802 86.2112 61.9551L90.6416 64.5021Z" fill="black"/>
<path d="M109.416 22.6253C109.416 21.2769 108.439 19.5539 107.238 18.8796L105.436 17.8309C104.234 17.1566 102.282 17.1566 101.08 17.8309L66.4628 37.7578C65.2614 38.432 64.2852 40.155 64.2852 41.5035V62.7039C64.2852 64.0524 65.2614 65.7754 66.4628 66.4496L68.2651 67.4984C69.4665 68.1726 71.4189 68.1726 72.6204 67.4984L87.3385 58.9583L90.4173 64.352C90.6426 64.7266 91.0931 64.6517 91.2433 64.2771L94.5474 54.7631L107.163 47.5714C108.364 46.8972 109.341 45.1742 109.341 43.8258L109.416 22.6253Z" fill="#1F78E2"/>
<path opacity="0.2" d="M64.2852 62.704C64.2852 64.0524 65.2614 65.7754 66.4628 66.4497L68.2651 67.4984C69.3163 68.0978 71.0435 68.1727 72.2449 67.6483C71.1936 68.0228 70.4427 67.4235 70.4427 66.2249V45.0245C70.4427 44.3502 70.668 43.6011 71.0435 42.852L64.8859 39.3311C64.5104 40.0053 64.2852 40.7544 64.2852 41.5035V62.704Z" fill="black"/>
<path opacity="0.4" d="M109.341 21.9511C109.115 21.0521 108.214 20.7525 107.238 21.2769L72.6204 41.2787C72.0196 41.6533 71.494 42.1777 71.1185 42.9268L64.9609 39.4059C65.3364 38.7317 65.862 38.1324 66.4628 37.7578L101.08 17.8309C102.282 17.1566 104.234 17.1566 105.436 17.8309L107.238 18.8796C108.289 19.404 109.115 20.7525 109.341 21.9511Z" fill="white"/>
<path d="M79.3075 47.1973C77.7306 48.0963 76.3789 50.3437 76.3789 52.2165C76.3789 54.0893 77.6555 54.8385 79.3075 53.8646C80.8844 52.9657 82.2361 50.7182 82.2361 48.8454C82.161 47.0475 80.8844 46.2984 79.3075 47.1973Z" fill="#FAFAFA"/>
<path d="M89.9677 41.0544C88.3907 41.9534 87.0391 44.2008 87.0391 46.0736C87.0391 47.9464 88.3156 48.6956 89.9677 47.7217C91.5446 46.8228 92.8963 44.5754 92.8963 42.7025C92.8963 40.8297 91.6197 40.0806 89.9677 41.0544Z" fill="#FAFAFA"/>
<path d="M100.71 34.836C99.1329 35.735 97.7812 37.9824 97.7812 39.8552C97.7812 41.728 99.0578 42.4772 100.71 41.5033C102.287 40.6043 103.638 38.3569 103.638 36.4841C103.638 34.6862 102.287 33.937 100.71 34.836Z" fill="#FAFAFA"/>
</g>
<defs>
<clipPath id="clip0_1701_4453">
<rect width="366" height="324" fill="white"/>
</clipPath>
</defs>
</svg>
